  0
SECTION
  2
HEADER
  9
$ACADVER
  1
AC1014
  9
$ACADMAINTVER
 70
     9
  9
$DWGCODEPAGE
  3
ANSI_1252
  9
$INSBASE
 10
0.0
 20
0.0
 30
0.0
  9
$EXTMIN
 10
0.2118553552604769
 20
0.0575083309589743
 30
0.0
  9
$EXTMAX
 10
21.9911323078421
 20
5.198450248607142
 30
0.0
  9
$LIMMIN
 10
0.0
 20
0.0
  9
$LIMMAX
 10
12.0
 20
9.0
  9
$ORTHOMODE
 70
     0
  9
$REGENMODE
 70
     1
  9
$FILLMODE
 70
     1
  9
$QTEXTMODE
 70
     0
  9
$MIRRTEXT
 70
     0
  9
$DRAGMODE
 70
     2
  9
$LTSCALE
 40
1.0
  9
$OSMODE
 70
   511
  9
$ATTMODE
 70
     1
  9
$TEXTSIZE
 40
0.2
  9
$TRACEWID
 40
0.05
  9
$TEXTSTYLE
  7
STANDARD
  9
$CLAYER
  8
0
  9
$CELTYPE
  6
BYLAYER
  9
$CECOLOR
 62
   256
  9
$CELTSCALE
 40
1.0
  9
$DELOBJ
 70
     1
  9
$DISPSILH
 70
     0
  9
$DIMSCALE
 40
1.0
  9
$DIMASZ
 40
0.18
  9
$DIMEXO
 40
0.0625
  9
$DIMDLI
 40
0.38
  9
$DIMRND
 40
0.001
  9
$DIMDLE
 40
0.0
  9
$DIMEXE
 40
0.18
  9
$DIMTP
 40
0.0
  9
$DIMTM
 40
0.0
  9
$DIMTXT
 40
0.18
  9
$DIMCEN
 40
0.09
  9
$DIMTSZ
 40
0.0
  9
$DIMTOL
 70
     0
  9
$DIMLIM
 70
     0
  9
$DIMTIH
 70
     1
  9
$DIMTOH
 70
     1
  9
$DIMSE1
 70
     0
  9
$DIMSE2
 70
     0
  9
$DIMTAD
 70
     0
  9
$DIMZIN
 70
     0
  9
$DIMBLK
  1

  9
$DIMASO
 70
     1
  9
$DIMSHO
 70
     1
  9
$DIMPOST
  1

  9
$DIMAPOST
  1

  9
$DIMALT
 70
     0
  9
$DIMALTD
 70
     2
  9
$DIMALTF
 40
25.4
  9
$DIMLFAC
 40
1.0
  9
$DIMTOFL
 70
     0
  9
$DIMTVP
 40
0.0
  9
$DIMTIX
 70
     0
  9
$DIMSOXD
 70
     0
  9
$DIMSAH
 70
     0
  9
$DIMBLK1
  1

  9
$DIMBLK2
  1

  9
$DIMSTYLE
  2
STANDARD
  9
$DIMCLRD
 70
     0
  9
$DIMCLRE
 70
     0
  9
$DIMCLRT
 70
     0
  9
$DIMTFAC
 40
1.0
  9
$DIMGAP
 40
0.09
  9
$DIMJUST
 70
     0
  9
$DIMSD1
 70
     0
  9
$DIMSD2
 70
     0
  9
$DIMTOLJ
 70
     1
  9
$DIMTZIN
 70
     0
  9
$DIMALTZ
 70
     0
  9
$DIMALTTZ
 70
     0
  9
$DIMFIT
 70
     3
  9
$DIMUPT
 70
     0
  9
$DIMUNIT
 70
     3
  9
$DIMDEC
 70
     3
  9
$DIMTDEC
 70
     4
  9
$DIMALTU
 70
     2
  9
$DIMALTTD
 70
     2
  9
$DIMTXSTY
  7
STANDARD
  9
$DIMAUNIT
 70
     0
  9
$LUNITS
 70
     2
  9
$LUPREC
 70
     4
  9
$SKETCHINC
 40
0.1
  9
$FILLETRAD
 40
0.0
  9
$AUNITS
 70
     0
  9
$AUPREC
 70
     0
  9
$MENU
  1
.
  9
$ELEVATION
 40
0.0
  9
$PELEVATION
 40
0.0
  9
$THICKNESS
 40
0.0
  9
$LIMCHECK
 70
     0
  9
$CHAMFERA
 40
0.0
  9
$CHAMFERB
 40
0.0
  9
$CHAMFERC
 40
0.0
  9
$CHAMFERD
 40
0.0
  9
$SKPOLY
 70
     0
  9
$TDCREATE
 40
2452642.813384271
  9
$TDUPDATE
 40
2457635.759723484
  9
$TDINDWG
 40
0.307113044
  9
$TDUSRTIMER
 40
2457635.706495058
  9
$USRTIMER
 70
     1
  9
$ANGBASE
 50
0.0
  9
$ANGDIR
 70
     0
  9
$PDMODE
 70
     0
  9
$PDSIZE
 40
0.0
  9
$PLINEWID
 40
0.0
  9
$COORDS
 70
     1
  9
$SPLFRAME
 70
     0
  9
$SPLINETYPE
 70
     6
  9
$SPLINESEGS
 70
     8
  9
$ATTDIA
 70
     0
  9
$ATTREQ
 70
     1
  9
$HANDLING
 70
     1
  9
$HANDSEED
  5
2FD
  9
$SURFTAB1
 70
     6
  9
$SURFTAB2
 70
     6
  9
$SURFTYPE
 70
     6
  9
$SURFU
 70
     6
  9
$SURFV
 70
     6
  9
$UCSNAME
  2

  9
$UCSORG
 10
0.0
 20
0.0
 30
0.0
  9
$UCSXDIR
 10
1.0
 20
0.0
 30
0.0
  9
$UCSYDIR
 10
0.0
 20
1.0
 30
0.0
  9
$PUCSNAME
  2

  9
$PUCSORG
 10
0.0
 20
0.0
 30
0.0
  9
$PUCSXDIR
 10
1.0
 20
0.0
 30
0.0
  9
$PUCSYDIR
 10
0.0
 20
1.0
 30
0.0
  9
$USERI1
 70
     0
  9
$USERI2
 70
     0
  9
$USERI3
 70
     0
  9
$USERI4
 70
     0
  9
$USERI5
 70
     0
  9
$USERR1
 40
0.0
  9
$USERR2
 40
0.0
  9
$USERR3
 40
0.0
  9
$USERR4
 40
0.0
  9
$USERR5
 40
0.0
  9
$WORLDVIEW
 70
     1
  9
$SHADEDGE
 70
     3
  9
$SHADEDIF
 70
    70
  9
$TILEMODE
 70
     0
  9
$MAXACTVP
 70
    64
  9
$PINSBASE
 10
0.0
 20
0.0
 30
0.0
  9
$PLIMCHECK
 70
     0
  9
$PEXTMIN
 10
0.0
 20
0.0
 30
0.0
  9
$PEXTMAX
 10
0.0
 20
0.0
 30
0.0
  9
$PLIMMIN
 10
-0.25
 20
-0.7499999999999999
  9
$PLIMMAX
 10
10.75
 20
7.75
  9
$UNITMODE
 70
     0
  9
$VISRETAIN
 70
     1
  9
$PLINEGEN
 70
     0
  9
$PSLTSCALE
 70
     1
  9
$TREEDEPTH
 70
  3020
  9
$PICKSTYLE
 70
     1
  9
$CMLSTYLE
  2
STANDARD
  9
$CMLJUST
 70
     0
  9
$CMLSCALE
 40
1.0
  9
$PROXYGRAPHICS
 70
     1
  9
$MEASUREMENT
 70
     0
  0
ENDSEC
  0
SECTION
  2
CLASSES
  0
CLASS
  1
ACDBDICTIONARYWDFLT
  2
AcDbDictionaryWithDefault
  3
ObjectDBX Classes
 90
        0
280
     0
281
     0
  0
CLASS
  1
ACDBPLACEHOLDER
  2
AcDbPlaceHolder
  3
ObjectDBX Classes
 90
        0
280
     0
281
     0
  0
CLASS
  1
LAYOUT
  2
AcDbLayout
  3
ObjectDBX Classes
 90
        0
280
     0
281
     0
  0
CLASS
  1
DICTIONARYVAR
  2
AcDbDictionaryVar
  3
ObjectDBX Classes
 90
        0
280
     0
281
     0
  0
CLASS
  1
TABLESTYLE
  2
AcDbTableStyle
  3
ObjectDBX Classes
 90
     4095
280
     0
281
     0
  0
CLASS
  1
MATERIAL
  2
AcDbMaterial
  3
ObjectDBX Classes
 90
     1153
280
     0
281
     0
  0
CLASS
  1
VISUALSTYLE
  2
AcDbVisualStyle
  3
ObjectDBX Classes
 90
     4095
280
     0
281
     0
  0
CLASS
  1
SCALE
  2
AcDbScale
  3
ObjectDBX Classes
 90
     1153
280
     0
281
     0
  0
CLASS
  1
CELLSTYLEMAP
  2
AcDbCellStyleMap
  3
ObjectDBX Classes
 90
     1152
280
     0
281
     0
  0
CLASS
  1
RASTERVARIABLES
  2
AcDbRasterVariables
  3
ISM
 90
        0
280
     0
281
     0
  0
CLASS
  1
SUN
  2
AcDbSun
  3
SCENEOE
 90
     1153
280
     0
281
     0
  0
CLASS
  1
MLEADERSTYLE
  2
AcDbMLeaderStyle
  3
ACDB_MLEADERSTYLE_CLASS
 90
     4095
280
     0
281
     0
  0
CLASS
  1
DIMASSOC
  2
AcDbDimAssoc
  3
"AcDbDimAssoc|Product Desc:     AcDim ARX App For Dimension|Company:          Autodesk, Inc.|WEB Address:      www.autodesk.com"
 90
        0
280
     0
281
     0
  0
CLASS
  1
XRECORD
  2
AcDbXrecord
  3
ObjectDBX Classes
 90
        0
280
     0
281
     0
  0
CLASS
  1
LWPOLYLINE
  2
AcDbPolyline
  3
ObjectDBX Classes
 90
        0
280
     0
281
     1
  0
CLASS
  1
HATCH
  2
AcDbHatch
  3
ObjectDBX Classes
 90
        0
280
     0
281
     1
  0
ENDSEC
  0
SECTION
  2
TABLES
  0
TABLE
  2
VPORT
  5
8
330
0
100
AcDbSymbolTable
 70
     1
  0
VPORT
  5
94
330
8
100
AcDbSymbolTableRecord
100
AcDbViewportTableRecord
  2
*ACTIVE
 70
     0
 10
0.0
 20
0.0
 11
1.0
 21
1.0
 12
44.25070970910444
 22
22.79140469292005
 13
0.0
 23
0.0
 14
0.5
 24
0.5
 15
0.1
 25
0.1
 16
0.0
 26
0.0
 36
1.0
 17
-27.6695935659798
 27
-19.53870295786203
 37
0.0
 40
11.65537625421192
 41
2.350704225352113
 42
50.0
 43
0.0
 44
0.0
 50
0.0
 51
0.0
 71
    16
 72
  1000
 73
     1
 74
     3
 75
     0
 76
     0
 77
     0
 78
     0
  0
ENDTAB
  0
TABLE
  2
LTYPE
  5
5
330
0
100
AcDbSymbolTable
 70
     1
  0
LTYPE
  5
14
330
5
100
AcDbSymbolTableRecord
100
AcDbLinetypeTableRecord
  2
BYBLOCK
 70
     0
  3

 72
    65
 73
     0
 40
0.0
  0
LTYPE
  5
15
330
5
100
AcDbSymbolTableRecord
100
AcDbLinetypeTableRecord
  2
BYLAYER
 70
     0
  3

 72
    65
 73
     0
 40
0.0
  0
LTYPE
  5
16
330
5
100
AcDbSymbolTableRecord
100
AcDbLinetypeTableRecord
  2
CONTINUOUS
 70
     0
  3
Solid line
 72
    65
 73
     0
 40
0.0
  0
ENDTAB
  0
TABLE
  2
LAYER
  5
2
102
{ACAD_XDICTIONARY
360
1F7
102
}
330
0
100
AcDbSymbolTable
 70
     4
  0
LAYER
  5
10
330
2
100
AcDbSymbolTableRecord
100
AcDbLayerTableRecord
  2
0
 70
     0
 62
     7
  6
CONTINUOUS
  0
LAYER
  5
12C
330
2
100
AcDbSymbolTableRecord
100
AcDbLayerTableRecord
  2
DEFPOINTS
 70
     0
 62
     7
  6
CONTINUOUS
  0
LAYER
  5
1FA
330
2
100
AcDbSymbolTableRecord
100
AcDbLayerTableRecord
  2
REFERENCE
 70
     0
 62
     6
  6
CONTINUOUS
1001
ACAECLAYERSTANDARD
1000

1000

  0
LAYER
  5
202
330
2
100
AcDbSymbolTableRecord
100
AcDbLayerTableRecord
  2
DIMENSION
 70
     0
 62
     5
  6
CONTINUOUS
1001
ACAECLAYERSTANDARD
1000

1000

  0
ENDTAB
  0
TABLE
  2
STYLE
  5
3
330
0
100
AcDbSymbolTable
 70
     2
  0
STYLE
  5
11
330
3
100
AcDbSymbolTableRecord
100
AcDbTextStyleTableRecord
  2
STANDARD
 70
     0
 40
0.0
 41
1.0
 50
0.0
 71
     0
 42
0.2
  3
arial.ttf
  4

1001
ACAD
1000
Arial
1071
        0
  0
STYLE
  5
125
330
3
100
AcDbSymbolTableRecord
100
AcDbTextStyleTableRecord
  2
ANNOTATIVE
 70
     0
 40
0.0
 41
1.0
 50
0.0
 71
     0
 42
0.2
  3
arial.ttf
  4

1001
ACAD
1000
Arial
1071
        0
1001
ACADANNOTATIVE
1000
AnnotativeData
1002
{
1070
     1
1070
     1
1002
}
  0
ENDTAB
  0
TABLE
  2
VIEW
  5
6
330
0
100
AcDbSymbolTable
 70
     0
  0
ENDTAB
  0
TABLE
  2
UCS
  5
7
330
0
100
AcDbSymbolTable
 70
     0
  0
ENDTAB
  0
TABLE
  2
APPID
  5
9
330
0
100
AcDbSymbolTable
 70
     4
  0
APPID
  5
12
330
9
100
AcDbSymbolTableRecord
100
AcDbRegAppTableRecord
  2
ACAD
 70
     0
  0
APPID
  5
126
330
9
100
AcDbSymbolTableRecord
100
AcDbRegAppTableRecord
  2
ACADANNOTATIVE
 70
     0
  0
APPID
  5
160
330
9
100
AcDbSymbolTableRecord
100
AcDbRegAppTableRecord
  2
ACAD_DSTYLE_DIMRADIAL_EXTE
 70
     0
  0
APPID
  5
1FB
330
9
100
AcDbSymbolTableRecord
100
AcDbRegAppTableRecord
  2
ACAECLAYERSTANDARD
 70
     0
  0
ENDTAB
  0
TABLE
  2
DIMSTYLE
  5
A
330
0
100
AcDbSymbolTable
 70
     2
  0
DIMSTYLE
105
27
102
{ACAD_REACTORS
330
1E7
330
204
330
214
330
27A
330
28A
330
29A
330
2C0
330
2C3
330
2C6
102
}
330
A
100
AcDbSymbolTableRecord
100
AcDbDimStyleTableRecord
  2
STANDARD
 70
     0
  3

  4

  5

  6

  7

 40
1.0
 41
0.18
 42
0.0625
 43
0.38
 44
0.18
 45
0.001
 46
0.0
 47
0.0
 48
0.0
140
0.18
141
0.09
142
0.0
143
25.4
144
1.0
145
0.0
146
1.0
147
0.09
 71
     0
 72
     0
 73
     1
 74
     1
 75
     0
 76
     0
 77
     0
 78
     0
170
     0
171
     2
172
     0
173
     0
174
     0
175
     0
176
     0
177
     0
178
     0
270
     3
271
     3
272
     4
273
     2
274
     2
340
11
275
     0
280
     0
281
     0
282
     0
283
     1
284
     0
285
     0
286
     0
287
     3
288
     0
  0
DIMSTYLE
105
127
330
A
100
AcDbSymbolTableRecord
100
AcDbDimStyleTableRecord
  2
ANNOTATIVE
 70
     0
  3

  4

  5

  6

  7

 40
0.0
 41
0.18
 42
0.0625
 43
0.38
 44
0.18
 45
0.0
 46
0.0
 47
0.0
 48
0.0
140
0.18
141
0.09
142
0.0
143
25.4
144
1.0
145
0.0
146
1.0
147
0.09
 71
     0
 72
     0
 73
     1
 74
     1
 75
     0
 76
     0
 77
     0
 78
     0
170
     0
171
     2
172
     0
173
     0
174
     0
175
     0
176
     0
177
     0
178
     0
270
     2
271
     4
272
     4
273
     2
274
     2
340
11
275
     0
280
     0
281
     0
282
     0
283
     1
284
     0
285
     0
286
     0
287
     3
288
     0
1001
ACADANNOTATIVE
1000
AnnotativeData
1002
{
1070
     1
1070
     1
1002
}
  0
ENDTAB
  0
TABLE
  2
BLOCK_RECORD
  5
1
330
0
100
AcDbSymbolTable
 70
    16
  0
BLOCK_RECORD
  5
1F
330
1
100
AcDbSymbolTableRecord
100
AcDbBlockTableRecord
  2
*MODEL_SPACE
  0
BLOCK_RECORD
  5
58
330
1
100
AcDbSymbolTableRecord
100
AcDbBlockTableRecord
  2
*PAPER_SPACE
  0
BLOCK_RECORD
  5
5D
330
1
100
AcDbSymbolTableRecord
100
AcDbBlockTableRecord
  2
*PAPER_SPACE0
  0
BLOCK_RECORD
  5
1EA
330
1
100
AcDbSymbolTableRecord
100
AcDbBlockTableRecord
  2
*D4
  0
BLOCK_RECORD
  5
207
330
1
100
AcDbSymbolTableRecord
100
AcDbBlockTableRecord
  2
*D5
  0
BLOCK_RECORD
  5
217
330
1
100
AcDbSymbolTableRecord
100
AcDbBlockTableRecord
  2
*D6
  0
BLOCK_RECORD
  5
22A
330
1
100
AcDbSymbolTableRecord
100
AcDbBlockTableRecord
  2
*D7
  0
BLOCK_RECORD
  5
238
330
1
100
AcDbSymbolTableRecord
100
AcDbBlockTableRecord
  2
*D8
  0
BLOCK_RECORD
  5
27D
330
1
100
AcDbSymbolTableRecord
100
AcDbBlockTableRecord
  2
*D10
  0
BLOCK_RECORD
  5
28D
330
1
100
AcDbSymbolTableRecord
100
AcDbBlockTableRecord
  2
*D11
  0
BLOCK_RECORD
  5
29D
330
1
100
AcDbSymbolTableRecord
100
AcDbBlockTableRecord
  2
*D12
  0
BLOCK_RECORD
  5
2C9
330
1
100
AcDbSymbolTableRecord
100
AcDbBlockTableRecord
  2
*D13
  0
BLOCK_RECORD
  5
2D6
330
1
100
AcDbSymbolTableRecord
100
AcDbBlockTableRecord
  2
*D14
  0
BLOCK_RECORD
  5
2E3
330
1
100
AcDbSymbolTableRecord
100
AcDbBlockTableRecord
  2
*D15
  0
ENDTAB
  0
ENDSEC
  0
SECTION
  2
BLOCKS
  0
BLOCK
  5
20
330
1F
100
AcDbEntity
  8
0
100
AcDbBlockBegin
  2
*MODEL_SPACE
 70
     0
 10
0.0
 20
0.0
 30
0.0
  3
*MODEL_SPACE
  1

  0
ENDBLK
  5
21
330
1F
100
AcDbEntity
  8
0
100
AcDbBlockEnd
  0
BLOCK
  5
5A
330
58
100
AcDbEntity
 67
     1
  8
0
100
AcDbBlockBegin
  2
*PAPER_SPACE
 70
     0
 10
0.0
 20
0.0
 30
0.0
  3
*PAPER_SPACE
  1

  0
ENDBLK
  5
5B
330
58
100
AcDbEntity
 67
     1
  8
0
100
AcDbBlockEnd
  0
BLOCK
  5
5F
330
5D
100
AcDbEntity
  8
0
100
AcDbBlockBegin
  2
*PAPER_SPACE0
 70
     0
 10
0.0
 20
0.0
 30
0.0
  3
*PAPER_SPACE0
  1
*PAPER_SPACE0
  0
ENDBLK
  5
60
330
5D
100
AcDbEntity
  8
0
100
AcDbBlockEnd
  0
BLOCK
  5
1EB
330
1EA
100
AcDbEntity
  8
0
100
AcDbBlockBegin
  2
*D4
 70
     1
 10
0.0
 20
0.0
 30
0.0
  3
*D4
  1
*D4
  0
LINE
  5
1ED
330
1EA
100
AcDbEntity
  8
DIMENSION
 62
     0
100
AcDbLine
 10
6.442350669740926
 20
4.307508330958974
 30
0.0
 11
8.023028940941028
 21
4.307508330958974
 31
0.0
  0
LINE
  5
1EE
330
1EA
100
AcDbEntity
  8
DIMENSION
 62
     0
100
AcDbLine
 10
6.442350669740926
 20
1.557508330958974
 30
0.0
 11
8.023028940941028
 21
1.557508330958974
 31
0.0
  0
LINE
  5
1EF
330
1EA
100
AcDbEntity
  8
DIMENSION
 62
     0
100
AcDbLine
 10
7.843028940941029
 20
4.127508330958975
 30
0.0
 11
7.843028940941029
 21
3.114398330958974
 31
0.0
  0
LINE
  5
1F0
330
1EA
100
AcDbEntity
  8
DIMENSION
 62
     0
100
AcDbLine
 10
7.843028940941029
 20
1.737508330958974
 30
0.0
 11
7.843028940941029
 21
2.750618330958975
 31
0.0
  0
SOLID
  5
1F1
330
1EA
100
AcDbEntity
  8
DIMENSION
 62
     0
100
AcDbTrace
 10
7.873028940941029
 20
4.127508330958975
 30
0.0
 11
7.813028940941028
 21
4.127508330958975
 31
0.0
 12
7.843028940941029
 22
4.307508330958974
 32
0.0
 13
7.843028940941029
 23
4.307508330958974
 33
0.0
  0
SOLID
  5
1F2
330
1EA
100
AcDbEntity
  8
DIMENSION
 62
     0
100
AcDbTrace
 10
7.813028940941028
 20
1.737508330958974
 30
0.0
 11
7.873028940941029
 21
1.737508330958974
 31
0.0
 12
7.843028940941029
 22
1.557508330958974
 32
0.0
 13
7.843028940941029
 23
1.557508330958974
 33
0.0
  0
MTEXT
  5
1F3
330
1EA
100
AcDbEntity
  8
DIMENSION
 62
     0
100
AcDbMText
 10
7.843028940941029
 20
2.932508330958974
 30
0.0
 40
0.18
 41
0.0
 71
     5
 72
     1
  1
\A1;2.750"
  0
POINT
  5
1F4
330
1EA
100
AcDbEntity
  8
DEFPOINTS
 62
     0
100
AcDbPoint
 10
6.379850669740926
 20
4.307508330958974
 30
0.0
  0
POINT
  5
1F5
330
1EA
100
AcDbEntity
  8
DEFPOINTS
 62
     0
100
AcDbPoint
 10
6.379850669740926
 20
1.557508330958974
 30
0.0
  0
POINT
  5
1F6
330
1EA
100
AcDbEntity
  8
DEFPOINTS
 62
     0
100
AcDbPoint
 10
7.843028940941029
 20
1.557508330958974
 30
0.0
  0
ENDBLK
  5
1EC
330
1EA
100
AcDbEntity
  8
0
100
AcDbBlockEnd
  0
BLOCK
  5
208
330
207
100
AcDbEntity
  8
0
100
AcDbBlockBegin
  2
*D5
 70
     1
 10
0.0
 20
0.0
 30
0.0
  3
*D5
  1
*D5
  0
LINE
  5
20A
330
207
100
AcDbEntity
  8
0
 62
     0
100
AcDbLine
 10
1.255331467422947
 20
4.307508330958974
 30
0.0
 11
0.3832153552604776
 21
4.307508330958974
 31
0.0
  0
LINE
  5
20B
330
207
100
AcDbEntity
  8
0
 62
     0
100
AcDbLine
 10
1.255331467422947
 20
0.0575083309589743
 30
0.0
 11
0.3832153552604774
 21
0.0575083309589744
 31
0.0
  0
LINE
  5
20C
330
207
100
AcDbEntity
  8
0
 62
     0
100
AcDbLine
 10
0.5632153552604776
 20
4.127508330958975
 30
0.0
 11
0.5632153552604775
 21
2.364398330958974
 31
0.0
  0
LINE
  5
20D
330
207
100
AcDbEntity
  8
0
 62
     0
100
AcDbLine
 10
0.5632153552604774
 20
0.2375083309589744
 30
0.0
 11
0.5632153552604775
 21
2.000618330958975
 31
0.0
  0
SOLID
  5
20E
330
207
100
AcDbEntity
  8
0
 62
     0
100
AcDbTrace
 10
0.5932153552604776
 20
4.127508330958975
 30
0.0
 11
0.5332153552604776
 21
4.127508330958975
 31
0.0
 12
0.5632153552604776
 22
4.307508330958974
 32
0.0
 13
0.5632153552604776
 23
4.307508330958974
 33
0.0
  0
SOLID
  5
20F
330
207
100
AcDbEntity
  8
0
 62
     0
100
AcDbTrace
 10
0.5332153552604774
 20
0.2375083309589744
 30
0.0
 11
0.5932153552604774
 21
0.2375083309589744
 31
0.0
 12
0.5632153552604774
 22
0.0575083309589744
 32
0.0
 13
0.5632153552604774
 23
0.0575083309589744
 33
0.0
  0
MTEXT
  5
210
330
207
100
AcDbEntity
  8
0
 62
     0
100
AcDbMText
 10
0.5632153552604775
 20
2.182508330958974
 30
0.0
 40
0.18
 41
0.0
 71
     5
 72
     1
  1
\A1;4.250"
  0
POINT
  5
211
330
207
100
AcDbEntity
  8
DEFPOINTS
 62
     0
100
AcDbPoint
 10
1.317831467422947
 20
4.307508330958974
 30
0.0
  0
POINT
  5
212
330
207
100
AcDbEntity
  8
DEFPOINTS
 62
     0
100
AcDbPoint
 10
1.317831467422947
 20
0.0575083309589743
 30
0.0
  0
POINT
  5
213
330
207
100
AcDbEntity
  8
DEFPOINTS
 62
     0
100
AcDbPoint
 10
0.5632153552604774
 20
0.0575083309589744
 30
0.0
  0
ENDBLK
  5
209
330
207
100
AcDbEntity
  8
0
100
AcDbBlockEnd
  0
BLOCK
  5
218
330
217
100
AcDbEntity
  8
0
100
AcDbBlockBegin
  2
*D6
 70
     1
 10
0.0
 20
0.0
 30
0.0
  3
*D6
  1
*D6
  0
LINE
  5
21A
330
217
100
AcDbEntity
  8
DIMENSION
 62
     0
100
AcDbLine
 10
6.379850669740926
 20
4.370008330958974
 30
0.0
 11
6.379850669740926
 21
5.140697929982279
 31
0.0
  0
LINE
  5
21B
330
217
100
AcDbEntity
  8
DIMENSION
 62
     0
100
AcDbLine
 10
1.317831467422947
 20
4.370008330958974
 30
0.0
 11
1.317831467422947
 21
5.140697929982279
 31
0.0
  0
LINE
  5
21C
330
217
100
AcDbEntity
  8
DIMENSION
 62
     0
100
AcDbLine
 10
6.199850669740926
 20
4.960697929982279
 30
0.0
 11
4.286601068581936
 21
4.960697929982279
 31
0.0
  0
LINE
  5
21D
330
217
100
AcDbEntity
  8
DIMENSION
 62
     0
100
AcDbLine
 10
1.497831467422946
 20
4.960697929982279
 30
0.0
 11
3.411081068581937
 21
4.960697929982279
 31
0.0
  0
SOLID
  5
21E
330
217
100
AcDbEntity
  8
DIMENSION
 62
     0
100
AcDbTrace
 10
6.199850669740926
 20
4.930697929982279
 30
0.0
 11
6.199850669740926
 21
4.99069792998228
 31
0.0
 12
6.379850669740926
 22
4.960697929982279
 32
0.0
 13
6.379850669740926
 23
4.960697929982279
 33
0.0
  0
SOLID
  5
21F
330
217
100
AcDbEntity
  8
DIMENSION
 62
     0
100
AcDbTrace
 10
1.497831467422946
 20
4.99069792998228
 30
0.0
 11
1.497831467422946
 21
4.930697929982279
 31
0.0
 12
1.317831467422947
 22
4.960697929982279
 32
0.0
 13
1.317831467422947
 23
4.960697929982279
 33
0.0
  0
MTEXT
  5
220
330
217
100
AcDbEntity
  8
DIMENSION
 62
     0
100
AcDbMText
 10
3.848841068581936
 20
4.960697929982279
 30
0.0
 40
0.18
 41
0.0
 71
     5
 72
     1
  1
\A1;5.062"
  0
POINT
  5
221
330
217
100
AcDbEntity
  8
DEFPOINTS
 62
     0
100
AcDbPoint
 10
6.379850669740926
 20
4.307508330958974
 30
0.0
  0
POINT
  5
222
330
217
100
AcDbEntity
  8
DEFPOINTS
 62
     0
100
AcDbPoint
 10
1.317831467422947
 20
4.307508330958974
 30
0.0
  0
POINT
  5
223
330
217
100
AcDbEntity
  8
DEFPOINTS
 62
     0
100
AcDbPoint
 10
1.317831467422947
 20
4.960697929982279
 30
0.0
  0
ENDBLK
  5
219
330
217
100
AcDbEntity
  8
0
100
AcDbBlockEnd
  0
BLOCK
  5
22B
330
22A
100
AcDbEntity
  8
0
100
AcDbBlockBegin
  2
*D7
 70
     1
 10
0.0
 20
0.0
 30
0.0
  3
*D7
  1
*D7
  0
LINE
  5
22D
330
22A
100
AcDbEntity
  8
DIMENSION
 62
     0
100
AcDbLine
 10
12.47088424752744
 20
3.085474786305072
 30
0.0
 11
12.29088424752744
 21
3.085474786305072
 31
0.0
  0
LINE
  5
22E
330
22A
100
AcDbEntity
  8
DIMENSION
 62
     0
100
AcDbLine
 10
12.29088424752744
 20
3.085474786305072
 30
0.0
 11
12.17190813971711
 21
2.950401895722607
 31
0.0
  0
MTEXT
  5
22F
330
22A
100
AcDbEntity
  8
DIMENSION
 62
     0
100
AcDbMText
 10
12.99468424752744
 20
3.085474786305072
 30
0.0
 40
0.18
 41
0.0
 71
     5
 72
     1
  1
\A1;R0.289"
  0
SOLID
  5
230
330
22A
100
AcDbEntity
  8
DIMENSION
 62
     0
100
AcDbTrace
 10
12.1493959912867
 20
2.97023124702433
 30
0.0
 11
12.19442028814752
 21
2.930572544420884
 31
0.0
 12
12.05293203190677
 22
2.815329005140141
 32
0.0
 13
12.05293203190677
 23
2.815329005140141
 33
0.0
  0
LINE
  5
231
330
22A
100
AcDbEntity
  8
DIMENSION
 62
     0
100
AcDbLine
 10
11.77212401004168
 20
2.598705755867898
 30
0.0
 11
11.95212401004168
 21
2.598705755867898
 31
0.0
  0
LINE
  5
232
330
22A
100
AcDbEntity
  8
DIMENSION
 62
     0
100
AcDbLine
 10
11.86212401004168
 20
2.508705755867898
 30
0.0
 11
11.86212401004168
 21
2.688705755867898
 31
0.0
  0
POINT
  5
233
330
22A
100
AcDbEntity
  8
DEFPOINTS
 62
     0
100
AcDbPoint
 10
12.05293203190677
 20
2.815329005140141
 30
0.0
  0
POINT
  5
234
330
22A
100
AcDbEntity
  8
DEFPOINTS
 62
     0
100
AcDbPoint
 10
11.86212401004168
 20
2.598705755867898
 30
0.0
  0
ENDBLK
  5
22C
330
22A
100
AcDbEntity
  8
0
100
AcDbBlockEnd
  0
BLOCK
  5
239
330
238
100
AcDbEntity
  8
0
100
AcDbBlockBegin
  2
*D8
 70
     1
 10
0.0
 20
0.0
 30
0.0
  3
*D8
  1
*D8
  0
LINE
  5
23B
330
238
100
AcDbEntity
  8
DIMENSION
 62
     0
100
AcDbLine
 10
12.28045627253332
 20
2.6981950425204
 30
0.0
 11
12.45557210334377
 21
2.739841720654005
 31
0.0
  0
MTEXT
  5
23C
330
238
100
AcDbEntity
  8
DIMENSION
 62
     0
100
AcDbMText
 10
12.97937210334377
 20
2.739841720654005
 30
0.0
 40
0.18
 41
0.0
 71
     5
 72
     1
  1
\A1;R0.250"
  0
SOLID
  5
23D
330
238
100
AcDbEntity
  8
DIMENSION
 62
     0
100
AcDbTrace
 10
12.27351515951105
 20
2.727381014322142
 30
0.0
 11
12.28739738555559
 21
2.669009070718657
 31
0.0
 12
12.10534044172286
 22
2.656548364386794
 32
0.0
 13
12.10534044172286
 23
2.656548364386794
 33
0.0
  0
LINE
  5
23E
330
238
100
AcDbEntity
  8
DIMENSION
 62
     0
100
AcDbLine
 10
11.77212401004168
 20
2.598705755867898
 30
0.0
 11
11.95212401004168
 21
2.598705755867898
 31
0.0
  0
LINE
  5
23F
330
238
100
AcDbEntity
  8
DIMENSION
 62
     0
100
AcDbLine
 10
11.86212401004168
 20
2.508705755867898
 30
0.0
 11
11.86212401004168
 21
2.688705755867898
 31
0.0
  0
POINT
  5
240
330
238
100
AcDbEntity
  8
DEFPOINTS
 62
     0
100
AcDbPoint
 10
12.10534044172286
 20
2.656548364386794
 30
0.0
  0
POINT
  5
241
330
238
100
AcDbEntity
  8
DEFPOINTS
 62
     0
100
AcDbPoint
 10
11.86212401004168
 20
2.598705755867898
 30
0.0
  0
ENDBLK
  5
23A
330
238
100
AcDbEntity
  8
0
100
AcDbBlockEnd
  0
BLOCK
  5
27E
330
27D
100
AcDbEntity
  8
0
100
AcDbBlockBegin
  2
*D10
 70
     1
 10
0.0
 20
0.0
 30
0.0
  3
*D10
  1
*D10
  0
LINE
  5
27F
330
27D
100
AcDbEntity
  8
0
 62
     0
100
AcDbLine
 10
6.230495314480449
 20
4.25
 30
0.0
 11
7.811173585680551
 21
4.25
 31
0.0
  0
LINE
  5
280
330
27D
100
AcDbEntity
  8
0
 62
     0
100
AcDbLine
 10
6.230495314480449
 20
1.5
 30
0.0
 11
7.811173585680551
 21
1.5
 31
0.0
  0
LINE
  5
281
330
27D
100
AcDbEntity
  8
0
 62
     0
100
AcDbLine
 10
7.631173585680552
 20
4.07
 30
0.0
 11
7.631173585680552
 21
3.05689
 31
0.0
  0
LINE
  5
282
330
27D
100
AcDbEntity
  8
0
 62
     0
100
AcDbLine
 10
7.631173585680552
 20
1.68
 30
0.0
 11
7.631173585680552
 21
2.693110000000001
 31
0.0
  0
SOLID
  5
283
330
27D
100
AcDbEntity
  8
0
 62
     0
100
AcDbTrace
 10
7.661173585680552
 20
4.07
 30
0.0
 11
7.601173585680551
 21
4.07
 31
0.0
 12
7.631173585680552
 22
4.25
 32
0.0
 13
7.631173585680552
 23
4.25
 33
0.0
  0
SOLID
  5
284
330
27D
100
AcDbEntity
  8
0
 62
     0
100
AcDbTrace
 10
7.601173585680551
 20
1.68
 30
0.0
 11
7.661173585680552
 21
1.68
 31
0.0
 12
7.631173585680552
 22
1.5
 32
0.0
 13
7.631173585680552
 23
1.5
 33
0.0
  0
MTEXT
  5
285
330
27D
100
AcDbEntity
  8
0
 62
     0
100
AcDbMText
 10
7.631173585680552
 20
2.875
 30
0.0
 40
0.18
 41
0.0
 71
     5
 72
     1
  1
\A1;2.750"
  0
POINT
  5
286
330
27D
100
AcDbEntity
  8
DEFPOINTS
 62
     0
100
AcDbPoint
 10
6.167995314480449
 20
4.25
 30
0.0
  0
POINT
  5
287
330
27D
100
AcDbEntity
  8
DEFPOINTS
 62
     0
100
AcDbPoint
 10
6.167995314480449
 20
1.5
 30
0.0
  0
POINT
  5
288
330
27D
100
AcDbEntity
  8
DEFPOINTS
 62
     0
100
AcDbPoint
 10
7.631173585680552
 20
1.5
 30
0.0
  0
ENDBLK
  5
289
330
27D
100
AcDbEntity
  8
0
100
AcDbBlockEnd
  0
BLOCK
  5
28E
330
28D
100
AcDbEntity
  8
0
100
AcDbBlockBegin
  2
*D11
 70
     1
 10
0.0
 20
0.0
 30
0.0
  3
*D11
  1
*D11
  0
LINE
  5
28F
330
28D
100
AcDbEntity
  8
0
 62
     0
100
AcDbLine
 10
1.04347611216247
 20
4.25
 30
0.0
 11
0.1713600000000007
 21
4.25
 31
0.0
  0
LINE
  5
290
330
28D
100
AcDbEntity
  8
0
 62
     0
100
AcDbLine
 10
1.04347611216247
 20
0.0
 30
0.0
 11
0.1713600000000005
 21
0.0000000000000001
 31
0.0
  0
LINE
  5
291
330
28D
100
AcDbEntity
  8
0
 62
     0
100
AcDbLine
 10
0.3513600000000007
 20
4.07
 30
0.0
 11
0.3513600000000006
 21
2.306889999999999
 31
0.0
  0
LINE
  5
292
330
28D
100
AcDbEntity
  8
0
 62
     0
100
AcDbLine
 10
0.3513600000000004
 20
0.18
 30
0.0
 11
0.3513600000000006
 21
1.94311
 31
0.0
  0
SOLID
  5
293
330
28D
100
AcDbEntity
  8
0
 62
     0
100
AcDbTrace
 10
0.3813600000000007
 20
4.07
 30
0.0
 11
0.3213600000000008
 21
4.07
 31
0.0
 12
0.3513600000000007
 22
4.25
 32
0.0
 13
0.3513600000000007
 23
4.25
 33
0.0
  0
SOLID
  5
294
330
28D
100
AcDbEntity
  8
0
 62
     0
100
AcDbTrace
 10
0.3213600000000004
 20
0.18
 30
0.0
 11
0.3813600000000005
 21
0.18
 31
0.0
 12
0.3513600000000004
 22
0.0
 32
0.0
 13
0.3513600000000004
 23
0.0
 33
0.0
  0
MTEXT
  5
295
330
28D
100
AcDbEntity
  8
0
 62
     0
100
AcDbMText
 10
0.3513600000000006
 20
2.125
 30
0.0
 40
0.18
 41
0.0
 71
     5
 72
     1
  1
\A1;4.250"
  0
POINT
  5
296
330
28D
100
AcDbEntity
  8
DEFPOINTS
 62
     0
100
AcDbPoint
 10
1.10597611216247
 20
4.25
 30
0.0
  0
POINT
  5
297
330
28D
100
AcDbEntity
  8
DEFPOINTS
 62
     0
100
AcDbPoint
 10
1.10597611216247
 20
0.0
 30
0.0
  0
POINT
  5
298
330
28D
100
AcDbEntity
  8
DEFPOINTS
 62
     0
100
AcDbPoint
 10
0.3513600000000004
 20
0.0
 30
0.0
  0
ENDBLK
  5
299
330
28D
100
AcDbEntity
  8
0
100
AcDbBlockEnd
  0
BLOCK
  5
29E
330
29D
100
AcDbEntity
  8
0
100
AcDbBlockBegin
  2
*D12
 70
     1
 10
0.0
 20
0.0
 30
0.0
  3
*D12
  1
*D12
  0
LINE
  5
29F
330
29D
100
AcDbEntity
  8
0
 62
     0
100
AcDbLine
 10
6.167995314480449
 20
4.3125
 30
0.0
 11
6.167995314480449
 21
5.083189599023305
 31
0.0
  0
LINE
  5
2A0
330
29D
100
AcDbEntity
  8
0
 62
     0
100
AcDbLine
 10
1.10597611216247
 20
4.3125
 30
0.0
 11
1.10597611216247
 21
5.083189599023305
 31
0.0
  0
LINE
  5
2A1
330
29D
100
AcDbEntity
  8
0
 62
     0
100
AcDbLine
 10
5.987995314480449
 20
4.903189599023305
 30
0.0
 11
4.074745713321461
 21
4.903189599023305
 31
0.0
  0
LINE
  5
2A2
330
29D
100
AcDbEntity
  8
0
 62
     0
100
AcDbLine
 10
1.28597611216247
 20
4.903189599023305
 30
0.0
 11
3.199225713321459
 21
4.903189599023305
 31
0.0
  0
SOLID
  5
2A3
330
29D
100
AcDbEntity
  8
0
 62
     0
100
AcDbTrace
 10
5.987995314480449
 20
4.873189599023305
 30
0.0
 11
5.987995314480449
 21
4.933189599023305
 31
0.0
 12
6.167995314480449
 22
4.903189599023305
 32
0.0
 13
6.167995314480449
 23
4.903189599023305
 33
0.0
  0
SOLID
  5
2A4
330
29D
100
AcDbEntity
  8
0
 62
     0
100
AcDbTrace
 10
1.28597611216247
 20
4.933189599023305
 30
0.0
 11
1.28597611216247
 21
4.873189599023305
 31
0.0
 12
1.10597611216247
 22
4.903189599023305
 32
0.0
 13
1.10597611216247
 23
4.903189599023305
 33
0.0
  0
MTEXT
  5
2A5
330
29D
100
AcDbEntity
  8
0
 62
     0
100
AcDbMText
 10
3.636985713321459
 20
4.903189599023305
 30
0.0
 40
0.18
 41
0.0
 71
     5
 72
     1
  1
\A1;5.062"
  0
POINT
  5
2A6
330
29D
100
AcDbEntity
  8
DEFPOINTS
 62
     0
100
AcDbPoint
 10
6.167995314480449
 20
4.25
 30
0.0
  0
POINT
  5
2A7
330
29D
100
AcDbEntity
  8
DEFPOINTS
 62
     0
100
AcDbPoint
 10
1.10597611216247
 20
4.25
 30
0.0
  0
POINT
  5
2A8
330
29D
100
AcDbEntity
  8
DEFPOINTS
 62
     0
100
AcDbPoint
 10
1.10597611216247
 20
4.903189599023305
 30
0.0
  0
ENDBLK
  5
2A9
330
29D
100
AcDbEntity
  8
0
100
AcDbBlockEnd
  0
BLOCK
  5
2CA
330
2C9
100
AcDbEntity
  8
0
100
AcDbBlockBegin
  2
*D13
 70
     1
 10
0.0
 20
0.0
 30
0.0
  3
*D13
  1
*D13
  0
LINE
  5
2CC
330
2C9
100
AcDbEntity
  8
DIMENSION
 62
     0
100
AcDbLine
 10
20.241164036642
 20
4.365260649583838
 30
0.0
 11
21.8218423078421
 21
4.365260649583838
 31
0.0
  0
LINE
  5
2CD
330
2C9
100
AcDbEntity
  8
DIMENSION
 62
     0
100
AcDbLine
 10
20.241164036642
 20
1.615260649583838
 30
0.0
 11
21.8218423078421
 21
1.615260649583838
 31
0.0
  0
LINE
  5
2CE
330
2C9
100
AcDbEntity
  8
DIMENSION
 62
     0
100
AcDbLine
 10
21.6418423078421
 20
4.185260649583838
 30
0.0
 11
21.6418423078421
 21
3.172150649583837
 31
0.0
  0
LINE
  5
2CF
330
2C9
100
AcDbEntity
  8
DIMENSION
 62
     0
100
AcDbLine
 10
21.6418423078421
 20
1.795260649583837
 30
0.0
 11
21.6418423078421
 21
2.808370649583838
 31
0.0
  0
SOLID
  5
2D0
330
2C9
100
AcDbEntity
  8
DIMENSION
 62
     0
100
AcDbTrace
 10
21.67184230784211
 20
4.185260649583838
 30
0.0
 11
21.6118423078421
 21
4.185260649583838
 31
0.0
 12
21.6418423078421
 22
4.365260649583838
 32
0.0
 13
21.6418423078421
 23
4.365260649583838
 33
0.0
  0
SOLID
  5
2D1
330
2C9
100
AcDbEntity
  8
DIMENSION
 62
     0
100
AcDbTrace
 10
21.6118423078421
 20
1.795260649583837
 30
0.0
 11
21.67184230784211
 21
1.795260649583837
 31
0.0
 12
21.6418423078421
 22
1.615260649583838
 32
0.0
 13
21.6418423078421
 23
1.615260649583838
 33
0.0
  0
MTEXT
  5
2D2
330
2C9
100
AcDbEntity
  8
DIMENSION
 62
     0
100
AcDbMText
 10
21.6418423078421
 20
2.990260649583838
 30
0.0
 40
0.18
 41
0.0
 71
     5
 72
     1
  1
\A1;2.750"
  0
POINT
  5
2D3
330
2C9
100
AcDbEntity
  8
DEFPOINTS
 62
     0
100
AcDbPoint
 10
20.178664036642
 20
4.365260649583838
 30
0.0
  0
POINT
  5
2D4
330
2C9
100
AcDbEntity
  8
DEFPOINTS
 62
     0
100
AcDbPoint
 10
20.178664036642
 20
1.615260649583838
 30
0.0
  0
POINT
  5
2D5
330
2C9
100
AcDbEntity
  8
DEFPOINTS
 62
     0
100
AcDbPoint
 10
21.6418423078421
 20
1.615260649583838
 30
0.0
  0
ENDBLK
  5
2CB
330
2C9
100
AcDbEntity
  8
0
100
AcDbBlockEnd
  0
BLOCK
  5
2D7
330
2D6
100
AcDbEntity
  8
0
100
AcDbBlockBegin
  2
*D14
 70
     1
 10
0.0
 20
0.0
 30
0.0
  3
*D14
  1
*D14
  0
LINE
  5
2D9
330
2D6
100
AcDbEntity
  8
DIMENSION
 62
     0
100
AcDbLine
 10
15.05414483432402
 20
4.365260649583838
 30
0.0
 11
14.18202872216155
 21
4.365260649583838
 31
0.0
  0
LINE
  5
2DA
330
2D6
100
AcDbEntity
  8
DIMENSION
 62
     0
100
AcDbLine
 10
15.05414483432402
 20
0.1152606495838375
 30
0.0
 11
14.18202872216155
 21
0.1152606495838376
 31
0.0
  0
LINE
  5
2DB
330
2D6
100
AcDbEntity
  8
DIMENSION
 62
     0
100
AcDbLine
 10
14.36202872216155
 20
4.185260649583838
 30
0.0
 11
14.36202872216155
 21
2.422150649583838
 31
0.0
  0
LINE
  5
2DC
330
2D6
100
AcDbEntity
  8
DIMENSION
 62
     0
100
AcDbLine
 10
14.36202872216155
 20
0.2952606495838376
 30
0.0
 11
14.36202872216155
 21
2.058370649583838
 31
0.0
  0
SOLID
  5
2DD
330
2D6
100
AcDbEntity
  8
DIMENSION
 62
     0
100
AcDbTrace
 10
14.39202872216155
 20
4.185260649583838
 30
0.0
 11
14.33202872216155
 21
4.185260649583838
 31
0.0
 12
14.36202872216155
 22
4.365260649583838
 32
0.0
 13
14.36202872216155
 23
4.365260649583838
 33
0.0
  0
SOLID
  5
2DE
330
2D6
100
AcDbEntity
  8
DIMENSION
 62
     0
100
AcDbTrace
 10
14.33202872216155
 20
0.2952606495838376
 30
0.0
 11
14.39202872216155
 21
0.2952606495838376
 31
0.0
 12
14.36202872216155
 22
0.1152606495838376
 32
0.0
 13
14.36202872216155
 23
0.1152606495838376
 33
0.0
  0
MTEXT
  5
2DF
330
2D6
100
AcDbEntity
  8
DIMENSION
 62
     0
100
AcDbMText
 10
14.36202872216155
 20
2.240260649583838
 30
0.0
 40
0.18
 41
0.0
 71
     5
 72
     1
  1
\A1;4.250"
  0
POINT
  5
2E0
330
2D6
100
AcDbEntity
  8
DEFPOINTS
 62
     0
100
AcDbPoint
 10
15.11664483432402
 20
4.365260649583838
 30
0.0
  0
POINT
  5
2E1
330
2D6
100
AcDbEntity
  8
DEFPOINTS
 62
     0
100
AcDbPoint
 10
15.11664483432402
 20
0.1152606495838375
 30
0.0
  0
POINT
  5
2E2
330
2D6
100
AcDbEntity
  8
DEFPOINTS
 62
     0
100
AcDbPoint
 10
14.36202872216155
 20
0.1152606495838376
 30
0.0
  0
ENDBLK
  5
2D8
330
2D6
100
AcDbEntity
  8
0
100
AcDbBlockEnd
  0
BLOCK
  5
2E4
330
2E3
100
AcDbEntity
  8
0
100
AcDbBlockBegin
  2
*D15
 70
     1
 10
0.0
 20
0.0
 30
0.0
  3
*D15
  1
*D15
  0
LINE
  5
2E6
330
2E3
100
AcDbEntity
  8
DIMENSION
 62
     0
100
AcDbLine
 10
20.178664036642
 20
4.427760649583838
 30
0.0
 11
20.178664036642
 21
5.198450248607142
 31
0.0
  0
LINE
  5
2E7
330
2E3
100
AcDbEntity
  8
DIMENSION
 62
     0
100
AcDbLine
 10
15.11664483432402
 20
4.427760649583838
 30
0.0
 11
15.11664483432402
 21
5.198450248607142
 31
0.0
  0
LINE
  5
2E8
330
2E3
100
AcDbEntity
  8
DIMENSION
 62
     0
100
AcDbLine
 10
19.998664036642
 20
5.018450248607143
 30
0.0
 11
18.08541443548301
 21
5.018450248607143
 31
0.0
  0
LINE
  5
2E9
330
2E3
100
AcDbEntity
  8
DIMENSION
 62
     0
100
AcDbLine
 10
15.29664483432402
 20
5.018450248607143
 30
0.0
 11
17.20989443548301
 21
5.018450248607143
 31
0.0
  0
SOLID
  5
2EA
330
2E3
100
AcDbEntity
  8
DIMENSION
 62
     0
100
AcDbTrace
 10
19.998664036642
 20
4.988450248607142
 30
0.0
 11
19.998664036642
 21
5.048450248607143
 31
0.0
 12
20.178664036642
 22
5.018450248607143
 32
0.0
 13
20.178664036642
 23
5.018450248607143
 33
0.0
  0
SOLID
  5
2EB
330
2E3
100
AcDbEntity
  8
DIMENSION
 62
     0
100
AcDbTrace
 10
15.29664483432402
 20
5.048450248607143
 30
0.0
 11
15.29664483432402
 21
4.988450248607142
 31
0.0
 12
15.11664483432402
 22
5.018450248607143
 32
0.0
 13
15.11664483432402
 23
5.018450248607143
 33
0.0
  0
MTEXT
  5
2EC
330
2E3
100
AcDbEntity
  8
DIMENSION
 62
     0
100
AcDbMText
 10
17.64765443548301
 20
5.018450248607143
 30
0.0
 40
0.18
 41
0.0
 71
     5
 72
     1
  1
\A1;5.062"
  0
POINT
  5
2ED
330
2E3
100
AcDbEntity
  8
DEFPOINTS
 62
     0
100
AcDbPoint
 10
20.178664036642
 20
4.365260649583838
 30
0.0
  0
POINT
  5
2EE
330
2E3
100
AcDbEntity
  8
DEFPOINTS
 62
     0
100
AcDbPoint
 10
15.11664483432402
 20
4.365260649583838
 30
0.0
  0
POINT
  5
2EF
330
2E3
100
AcDbEntity
  8
DEFPOINTS
 62
     0
100
AcDbPoint
 10
15.11664483432402
 20
5.018450248607143
 30
0.0
  0
ENDBLK
  5
2E5
330
2E3
100
AcDbEntity
  8
0
100
AcDbBlockEnd
  0
ENDSEC
  0
SECTION
  2
ENTITIES
  0
CIRCLE
  5
15A
330
1F
100
AcDbEntity
  8
0
100
AcDbCircle
 10
3.848841068581936
 20
2.182508330958975
 30
0.0
 40
0.625
  0
CIRCLE
  5
173
330
1F
100
AcDbEntity
  8
0
100
AcDbCircle
 10
3.848841068581936
 20
4.052587080958975
 30
0.0
 40
0.125
  0
CIRCLE
  5
174
330
1F
100
AcDbEntity
  8
0
100
AcDbCircle
 10
1.978762318581936
 20
2.182508330958976
 30
0.0
 40
0.125
  0
CIRCLE
  5
175
330
1F
100
AcDbEntity
  8
0
100
AcDbCircle
 10
5.718919818581936
 20
2.182508330958975
 30
0.0
 40
0.125
  0
CIRCLE
  5
176
330
1F
100
AcDbEntity
  8
0
100
AcDbCircle
 10
3.848841068581935
 20
0.3124295809589752
 30
0.0
 40
0.125
  0
LWPOLYLINE
  5
1A5
102
{ACAD_REACTORS
102
}
330
1F
100
AcDbEntity
  8
0
100
AcDbPolyline
 90
        4
 70
     1
 43
0.0
 10
1.317831467422947
 20
0.0575083309589746
 10
6.379850669740926
 20
0.0575083309589743
 10
6.379850669740926
 20
4.307508330958974
 10
1.317831467422947
 20
4.307508330958974
  0
CIRCLE
  5
1A9
330
1F
100
AcDbEntity
  8
REFERENCE
100
AcDbCircle
 10
3.848841068581936
 20
2.182508330958975
 30
0.0
 40
2.125
  0
LWPOLYLINE
  5
1AA
330
1F
100
AcDbEntity
  8
REFERENCE
100
AcDbPolyline
 90
        4
 70
     1
 43
0.0
 10
1.317831467422947
 20
0.0575083309589746
 10
1.817831467422947
 20
0.0575083309589746
 10
1.817831467422947
 20
1.557508330958975
 10
1.317831467422947
 20
1.557508330958975
  0
LWPOLYLINE
  5
1AB
330
1F
100
AcDbEntity
  8
REFERENCE
100
AcDbPolyline
 90
        4
 70
     1
 43
0.0
 10
1.317831467422947
 20
2.807508330958974
 10
1.817831467422947
 20
2.807508330958974
 10
1.817831467422947
 20
4.307508330958974
 10
1.317831467422947
 20
4.307508330958974
  0
CIRCLE
  5
1B9
330
1F
100
AcDbEntity
  8
0
100
AcDbCircle
 10
1.567831467422947
 20
0.4325083309589748
 30
0.0
 40
0.0625
  0
CIRCLE
  5
1BA
330
1F
100
AcDbEntity
  8
0
100
AcDbCircle
 10
1.567831467422947
 20
1.182508330958975
 30
0.0
 40
0.0625
  0
CIRCLE
  5
1BB
330
1F
100
AcDbEntity
  8
0
100
AcDbCircle
 10
1.567831467422947
 20
3.182508330958974
 30
0.0
 40
0.0625
  0
CIRCLE
  5
1BC
330
1F
100
AcDbEntity
  8
0
100
AcDbCircle
 10
1.567831467422947
 20
3.932508330958974
 30
0.0
 40
0.0625
  0
LWPOLYLINE
  5
1BF
330
1F
100
AcDbEntity
  8
REFERENCE
100
AcDbPolyline
 90
        4
 70
     1
 43
0.0
 10
5.879850669740926
 20
2.807508330958974
 10
6.379850669740926
 20
2.807508330958974
 10
6.379850669740926
 20
4.307508330958974
 10
5.879850669740926
 20
4.307508330958974
  0
CIRCLE
  5
1C0
330
1F
100
AcDbEntity
  8
0
100
AcDbCircle
 10
6.129850669740926
 20
3.182508330958974
 30
0.0
 40
0.0625
  0
CIRCLE
  5
1C1
330
1F
100
AcDbEntity
  8
0
100
AcDbCircle
 10
6.129850669740926
 20
3.932508330958974
 30
0.0
 40
0.0625
  0
LWPOLYLINE
  5
1C3
102
{ACAD_REACTORS
102
}
330
1F
100
AcDbEntity
  8
REFERENCE
100
AcDbPolyline
 90
        4
 70
     1
 43
0.0
 10
5.879850669740926
 20
0.0575083309589743
 10
6.379850669740926
 20
0.0575083309589743
 10
6.379850669740926
 20
1.557508330958974
 10
5.879850669740926
 20
1.557508330958974
  0
CIRCLE
  5
1C4
330
1F
100
AcDbEntity
  8
0
100
AcDbCircle
 10
6.129850669740926
 20
0.4325083309589743
 30
0.0
 40
0.0625
  0
CIRCLE
  5
1C5
330
1F
100
AcDbEntity
  8
0
100
AcDbCircle
 10
6.129850669740926
 20
1.182508330958974
 30
0.0
 40
0.0625
  0
DIMENSION
  5
1E7
102
{ACAD_REACTORS
102
}
102
{ACAD_XDICTIONARY
360
1E8
102
}
330
1F
100
AcDbEntity
  8
DIMENSION
100
AcDbDimension
  2
*D4
 10
7.843028940941029
 20
1.557508330958974
 30
0.0
 11
7.843028940941029
 21
2.932508330958974
 31
0.0
 70
    32
  3
STANDARD
100
AcDbAlignedDimension
 13
6.379850669740926
 23
4.307508330958974
 33
0.0
 14
6.379850669740926
 24
1.557508330958974
 34
0.0
 50
90.0
100
AcDbRotatedDimension
  0
DIMENSION
  5
204
102
{ACAD_REACTORS
102
}
102
{ACAD_XDICTIONARY
360
205
102
}
330
1F
100
AcDbEntity
  8
0
100
AcDbDimension
  2
*D5
 10
0.5632153552604774
 20
0.0575083309589744
 30
0.0
 11
0.5632153552604775
 21
2.182508330958974
 31
0.0
 70
    32
  3
STANDARD
100
AcDbAlignedDimension
 13
1.317831467422947
 23
4.307508330958974
 33
0.0
 14
1.317831467422947
 24
0.0575083309589743
 34
0.0
 50
90.0
100
AcDbRotatedDimension
  0
DIMENSION
  5
214
102
{ACAD_REACTORS
102
}
102
{ACAD_XDICTIONARY
360
215
102
}
330
1F
100
AcDbEntity
  8
DIMENSION
100
AcDbDimension
  2
*D6
 10
1.317831467422947
 20
4.960697929982279
 30
0.0
 11
3.848841068581936
 21
4.960697929982279
 31
0.0
 70
    32
  3
STANDARD
100
AcDbAlignedDimension
 13
6.379850669740926
 23
4.307508330958974
 33
0.0
 14
1.317831467422947
 24
4.307508330958974
 34
0.0
100
AcDbRotatedDimension
  0
CIRCLE
  5
2AD
330
1F
100
AcDbEntity
  8
0
100
AcDbCircle
 10
17.64765443548301
 20
2.240260649583838
 30
0.0
 40
0.625
  0
CIRCLE
  5
2AE
330
1F
100
AcDbEntity
  8
0
100
AcDbCircle
 10
17.64765443548301
 20
4.110339399583839
 30
0.0
 40
0.2375
  0
CIRCLE
  5
2AF
330
1F
100
AcDbEntity
  8
0
100
AcDbCircle
 10
15.77757568548301
 20
2.240260649583839
 30
0.0
 40
0.125
  0
CIRCLE
  5
2B0
330
1F
100
AcDbEntity
  8
0
100
AcDbCircle
 10
19.51773318548301
 20
2.240260649583838
 30
0.0
 40
0.125
  0
CIRCLE
  5
2B1
330
1F
100
AcDbEntity
  8
0
100
AcDbCircle
 10
17.64765443548301
 20
0.3701818995838384
 30
0.0
 40
0.2375
  0
LWPOLYLINE
  5
2B2
102
{ACAD_REACTORS
102
}
330
1F
100
AcDbEntity
  8
0
100
AcDbPolyline
 90
        4
 70
     1
 43
0.0
 10
15.11664483432402
 20
0.1152606495838377
 10
20.178664036642
 20
0.1152606495838375
 10
20.178664036642
 20
4.365260649583838
 10
15.11664483432402
 20
4.365260649583838
  0
CIRCLE
  5
2B3
330
1F
100
AcDbEntity
  8
REFERENCE
100
AcDbCircle
 10
17.64765443548301
 20
2.240260649583838
 30
0.0
 40
2.125
  0
LWPOLYLINE
  5
2B4
330
1F
100
AcDbEntity
  8
REFERENCE
100
AcDbPolyline
 90
        4
 70
     1
 43
0.0
 10
15.11664483432402
 20
0.1152606495838377
 10
15.61664483432402
 20
0.1152606495838377
 10
15.61664483432402
 20
1.615260649583838
 10
15.11664483432402
 20
1.615260649583838
  0
LWPOLYLINE
  5
2B5
330
1F
100
AcDbEntity
  8
REFERENCE
100
AcDbPolyline
 90
        4
 70
     1
 43
0.0
 10
15.11664483432402
 20
2.865260649583838
 10
15.61664483432402
 20
2.865260649583838
 10
15.61664483432402
 20
4.365260649583838
 10
15.11664483432402
 20
4.365260649583838
  0
CIRCLE
  5
2B6
330
1F
100
AcDbEntity
  8
0
100
AcDbCircle
 10
15.36664483432402
 20
0.490260649583838
 30
0.0
 40
0.0625
  0
CIRCLE
  5
2B7
330
1F
100
AcDbEntity
  8
0
100
AcDbCircle
 10
15.36664483432402
 20
1.240260649583838
 30
0.0
 40
0.0625
  0
CIRCLE
  5
2B8
330
1F
100
AcDbEntity
  8
0
100
AcDbCircle
 10
15.36664483432402
 20
3.240260649583838
 30
0.0
 40
0.0625
  0
CIRCLE
  5
2B9
330
1F
100
AcDbEntity
  8
0
100
AcDbCircle
 10
15.36664483432402
 20
3.990260649583838
 30
0.0
 40
0.0625
  0
LWPOLYLINE
  5
2BA
330
1F
100
AcDbEntity
  8
REFERENCE
100
AcDbPolyline
 90
        4
 70
     1
 43
0.0
 10
19.678664036642
 20
2.865260649583838
 10
20.178664036642
 20
2.865260649583838
 10
20.178664036642
 20
4.365260649583838
 10
19.678664036642
 20
4.365260649583838
  0
CIRCLE
  5
2BB
330
1F
100
AcDbEntity
  8
0
100
AcDbCircle
 10
19.928664036642
 20
3.240260649583838
 30
0.0
 40
0.0625
  0
CIRCLE
  5
2BC
330
1F
100
AcDbEntity
  8
0
100
AcDbCircle
 10
19.928664036642
 20
3.990260649583838
 30
0.0
 40
0.0625
  0
LWPOLYLINE
  5
2BD
102
{ACAD_REACTORS
102
}
330
1F
100
AcDbEntity
  8
REFERENCE
100
AcDbPolyline
 90
        4
 70
     1
 43
0.0
 10
19.678664036642
 20
0.1152606495838375
 10
20.178664036642
 20
0.1152606495838375
 10
20.178664036642
 20
1.615260649583838
 10
19.678664036642
 20
1.615260649583838
  0
CIRCLE
  5
2BE
330
1F
100
AcDbEntity
  8
0
100
AcDbCircle
 10
19.928664036642
 20
0.4902606495838375
 30
0.0
 40
0.0625
  0
CIRCLE
  5
2BF
330
1F
100
AcDbEntity
  8
0
100
AcDbCircle
 10
19.928664036642
 20
1.240260649583838
 30
0.0
 40
0.0625
  0
DIMENSION
  5
2C0
102
{ACAD_REACTORS
102
}
102
{ACAD_XDICTIONARY
360
2C1
102
}
330
1F
100
AcDbEntity
  8
DIMENSION
100
AcDbDimension
  2
*D13
 10
21.6418423078421
 20
1.615260649583838
 30
0.0
 11
21.6418423078421
 21
2.990260649583838
 31
0.0
 70
    32
  3
STANDARD
100
AcDbAlignedDimension
 13
20.178664036642
 23
4.365260649583838
 33
0.0
 14
20.178664036642
 24
1.615260649583838
 34
0.0
 50
90.0
100
AcDbRotatedDimension
  0
DIMENSION
  5
2C3
102
{ACAD_REACTORS
102
}
102
{ACAD_XDICTIONARY
360
2C4
102
}
330
1F
100
AcDbEntity
  8
DIMENSION
100
AcDbDimension
  2
*D14
 10
14.36202872216155
 20
0.1152606495838376
 30
0.0
 11
14.36202872216155
 21
2.240260649583838
 31
0.0
 70
    32
  3
STANDARD
100
AcDbAlignedDimension
 13
15.11664483432402
 23
4.365260649583838
 33
0.0
 14
15.11664483432402
 24
0.1152606495838375
 34
0.0
 50
90.0
100
AcDbRotatedDimension
  0
DIMENSION
  5
2C6
102
{ACAD_REACTORS
102
}
102
{ACAD_XDICTIONARY
360
2C7
102
}
330
1F
100
AcDbEntity
  8
DIMENSION
100
AcDbDimension
  2
*D15
 10
15.11664483432402
 20
5.018450248607143
 30
0.0
 11
17.64765443548301
 21
5.018450248607143
 31
0.0
 70
    32
  3
STANDARD
100
AcDbAlignedDimension
 13
20.178664036642
 23
4.365260649583838
 33
0.0
 14
15.11664483432402
 24
4.365260649583838
 34
0.0
100
AcDbRotatedDimension
  0
VIEWPORT
  5
2F7
330
58
100
AcDbEntity
 67
     1
  8
0
100
AcDbViewport
 10
5.25
 20
3.5
 30
0.0
 40
11.55
 41
8.925
 68
     1
 69
     1
1001
ACAD
1000
MVIEW
1002
{
1070
    16
1010
0.0
1020
0.0
1030
0.0
1010
0.0
1020
0.0
1030
1.0
1040
0.0
1040
8.925
1040
5.25
1040
3.5
1040
50.0
1040
0.0
1040
0.0
1070
     0
1070
   100
1070
     0
1070
     3
1070
     0
1070
     0
1070
     0
1070
     0
1040
0.0
1040
0.0
1040
0.0
1040
0.5
1040
0.5
1040
0.0
1040
0.0
1070
     0
1002
{
1002
}
1002
}
  0
VIEWPORT
  5
2F8
102
{ACAD_XDICTIONARY
360
2F9
102
}
330
58
100
AcDbEntity
 67
     1
  8
0
100
AcDbViewport
 10
5.25
 20
3.5
 30
0.0
 40
8.4
 41
5.600000000000001
 68
     2
 69
     2
1001
ACAD
1000
MVIEW
1002
{
1070
    16
1010
0.0
1020
0.0
1030
0.0
1010
0.0
1020
0.0
1030
1.0
1040
0.0
1040
14.80990832775551
1040
11.10149383155129
1040
2.627979289783058
1040
50.0
1040
0.0
1040
0.0
1070
     0
1070
   100
1070
     0
1070
     3
1070
     0
1070
     0
1070
     0
1070
     0
1040
0.0
1040
0.0
1040
0.0
1040
0.5
1040
0.5
1040
0.0
1040
0.0
1070
     0
1002
{
1002
}
1002
}
  0
ENDSEC
  0
SECTION
  2
OBJECTS
  0
DICTIONARY
  5
C
330
0
100
AcDbDictionary
  3
ACAD_DETAILVIEWSTYLE
350
122
  3
ACAD_GROUP
350
D
  3
ACAD_IMAGE_VARS
350
DC
  3
ACAD_MLINESTYLE
350
17
  3
ACAD_SCALELIST
350
B6
  3
ACAD_SECTIONVIEWSTYLE
350
123
  3
ACDBVARIABLEDICTIONARY
350
66
  3
APPDATA
350
E1
  3
DIMOFFSETDICTIONARY
350
129
  3
DWGPROPS
350
2FC
  0
DICTIONARY
  5
1F7
330
2
100
AcDbDictionary
280
     1
  3
ACAD_LAYERSTATES
360
1F8
  3
ACLYDICTIONARY
360
2F5
  0
DICTIONARY
  5
1E8
330
1E7
100
AcDbDictionary
280
     1
  0
DICTIONARY
  5
205
330
204
100
AcDbDictionary
280
     1
  0
DICTIONARY
  5
215
330
214
100
AcDbDictionary
280
     1
  0
DICTIONARY
  5
2C1
330
2C0
100
AcDbDictionary
280
     1
  0
DICTIONARY
  5
2C4
330
2C3
100
AcDbDictionary
280
     1
  0
DICTIONARY
  5
2C7
330
2C6
100
AcDbDictionary
280
     1
  0
DICTIONARY
  5
2F9
330
2F8
100
AcDbDictionary
280
     1
  3
ASDK_XREC_ANNOTATION_SCALE_INFO
360
2FA
  0
DICTIONARY
  5
122
102
{ACAD_REACTORS
330
C
102
}
330
C
100
AcDbDictionary
  0
DICTIONARY
  5
D
102
{ACAD_REACTORS
330
C
102
}
330
C
100
AcDbDictionary
  0
RASTERVARIABLES
  5
DC
102
{ACAD_REACTORS
330
C
102
}
330
C
100
AcDbRasterVariables
 90
        0
 70
     1
 71
     1
 72
     5
  0
DICTIONARY
  5
17
102
{ACAD_REACTORS
330
C
102
}
330
C
100
AcDbDictionary
  3
STANDARD
350
18
  0
DICTIONARY
  5
B6
102
{ACAD_REACTORS
330
C
102
}
330
C
100
AcDbDictionary
  0
DICTIONARY
  5
123
102
{ACAD_REACTORS
330
C
102
}
330
C
100
AcDbDictionary
  0
DICTIONARY
  5
66
102
{ACAD_REACTORS
330
C
102
}
330
C
100
AcDbDictionary
  3
DIMASSOC
350
67
  3
HIDETEXT
350
6B
  3
HPTRANSPARENCY
350
14F
  0
DICTIONARY
  5
E1
102
{ACAD_REACTORS
330
C
102
}
330
C
100
AcDbDictionary
  0
DICTIONARY
  5
129
102
{ACAD_REACTORS
330
C
102
}
330
C
100
AcDbDictionary
  3
DIMRAILANGLE
350
15E
  3
DIMRAILFIRSTOFFSET
350
15C
  3
DIMRAILOFFSET
350
15D
  3
DIMRAILSENABLED
350
15F
  0
XRECORD
  5
2FC
102
{ACAD_REACTORS
330
C
102
}
330
C
100
AcDbXrecord
  1
DWGPROPS COOKIE
  2

  3

  4

  6

  7

  8
brian.huang
  9

300
=
301
=
302
=
303
=
304
=
305
=
306
=
307
=
308
=
309
=
 40
0.0
 41
2452643.063384271
 42
2457636.009723484
  1

 90
        0
  0
DICTIONARY
  5
1F8
102
{ACAD_REACTORS
330
1F7
102
}
330
1F7
100
AcDbDictionary
  0
DICTIONARY
  5
2F5
102
{ACAD_REACTORS
330
1F7
102
}
330
1F7
100
AcDbDictionary
1001
ACAD
1000
<All
  0
XRECORD
  5
2FA
102
{ACAD_REACTORS
330
2F9
102
}
330
2F9
100
AcDbXrecord
 90
        1
340
0
  0
MLINESTYLE
  5
18
102
{ACAD_REACTORS
330
17
102
}
330
17
100
AcDbMlineStyle
  2
STANDARD
 70
     0
  3

 62
   256
 51
90.0
 52
90.0
 71
     2
 49
0.5
 62
   256
  6
BYLAYER
 49
-0.5
 62
   256
  6
BYLAYER
  0
DICTIONARYVAR
  5
67
102
{ACAD_REACTORS
330
66
102
}
330
66
100
DictionaryVariables
280
     0
  1
2
  0
DICTIONARYVAR
  5
6B
102
{ACAD_REACTORS
330
66
102
}
330
66
100
DictionaryVariables
280
     0
  1
1
  0
DICTIONARYVAR
  5
14F
102
{ACAD_REACTORS
330
66
102
}
330
66
100
DictionaryVariables
280
     0
  1
ByLayer
  0
DICTIONARYVAR
  5
15E
102
{ACAD_REACTORS
330
129
102
}
330
129
100
DictionaryVariables
280
     0
  1
0.261799
  0
DICTIONARYVAR
  5
15C
102
{ACAD_REACTORS
330
129
102
}
330
129
100
DictionaryVariables
280
     0
  1
0.400000
  0
DICTIONARYVAR
  5
15D
102
{ACAD_REACTORS
330
129
102
}
330
129
100
DictionaryVariables
280
     0
  1
0.250000
  0
DICTIONARYVAR
  5
15F
102
{ACAD_REACTORS
330
129
102
}
330
129
100
DictionaryVariables
280
     0
  1
1
  0
ENDSEC
  0
EOF
