<?xml version="1.0" encoding="UTF-8" standalone="no"?>
<!-- Created with Inkscape (http://www.inkscape.org/) -->

<svg
   xmlns:dc="http://purl.org/dc/elements/1.1/"
   xmlns:cc="http://creativecommons.org/ns#"
   xmlns:rdf="http://www.w3.org/1999/02/22-rdf-syntax-ns#"
   xmlns:svg="http://www.w3.org/2000/svg"
   xmlns="http://www.w3.org/2000/svg"
   xmlns:sodipodi="http://sodipodi.sourceforge.net/DTD/sodipodi-0.dtd"
   xmlns:inkscape="http://www.inkscape.org/namespaces/inkscape"
   id="svg4864"
   version="1.1"
   inkscape:version="0.91 r13725"
   xml:space="preserve"
   width="763.75"
   height="988.75"
   viewBox="0 0 763.75 988.75"
   sodipodi:docname="wheel_hub.svg"><metadata
     id="metadata4870"><rdf:RDF><cc:Work
         rdf:about=""><dc:format>image/svg+xml</dc:format><dc:type
           rdf:resource="http://purl.org/dc/dcmitype/StillImage" /><dc:title></dc:title></cc:Work></rdf:RDF></metadata><defs
     id="defs4868"><clipPath
       clipPathUnits="userSpaceOnUse"
       id="clipPath4878"><path
         d="M 0,0 611,0 611,791 0,791 0,0 Z"
         id="path4880"
         inkscape:connector-curvature="0" /></clipPath><clipPath
       clipPathUnits="userSpaceOnUse"
       id="clipPath4942"><path
         d="M 0,0 611,0 611,791 0,791 0,0 Z"
         id="path4944"
         inkscape:connector-curvature="0" /></clipPath></defs><sodipodi:namedview
     pagecolor="#ffffff"
     bordercolor="#666666"
     borderopacity="1"
     objecttolerance="10"
     gridtolerance="10"
     guidetolerance="10"
     inkscape:pageopacity="0"
     inkscape:pageshadow="2"
     inkscape:window-width="1280"
     inkscape:window-height="657"
     id="namedview4866"
     showgrid="false"
     inkscape:zoom="0.86573957"
     inkscape:cx="263.11252"
     inkscape:cy="799.27978"
     inkscape:window-x="-8"
     inkscape:window-y="-8"
     inkscape:window-maximized="1"
     inkscape:current-layer="g4872" /><g
     id="g4872"
     inkscape:groupmode="layer"
     inkscape:label="wheel_hub"
     transform="matrix(1.25,0,0,-1.25,0,988.75)"><g
       id="g4874"
       transform="matrix(0.48004677,0,0,0.47987078,26.919654,441.45288)"><g
         id="g4876"
         clip-path="url(#clipPath4878)"><g
           id="g4882"
           transform="scale(0.12,0.12)"><path
             d="m 2357,3621 -188,-326 188,-325 376,0 188,325 -188,326 -376,0 z"
             style="fill:none;stroke:#000000;stroke-width:5.90551186;stroke-linecap:round;stroke-linejoin:round;stroke-miterlimit:10;stroke-dasharray:none;stroke-opacity:1"
             id="path4884"
             inkscape:connector-curvature="0" /><path
             d="m 2179,5533 c 0.6444,-201.5861 164.5928,-365.5344 366.8333,-365.5344 202.2406,0 366.189,163.9483 366.189,366.1889"
             style="fill:none;stroke:#000000;stroke-width:5.90551186;stroke-linecap:round;stroke-linejoin:round;stroke-miterlimit:10;stroke-dasharray:none;stroke-opacity:1"
             id="path4886"
             inkscape:connector-curvature="0" /><path
             d="m 4783,3662 c -201.5861,0.022 -365.5344,-163.9261 -365.5344,-366.1667 0,-202.2405 163.9483,-366.1889 366.1889,-366.1889"
             style="fill:none;stroke:#000000;stroke-width:5.90551186;stroke-linecap:round;stroke-linejoin:round;stroke-miterlimit:10;stroke-dasharray:none;stroke-opacity:1"
             id="path4888"
             inkscape:connector-curvature="0" /><path
             d="m 308,2929 c 202.25272,0.6444 366.20109,164.5928 366.20109,366.8333 0,202.2406 -163.94837,366.189 -366.18892,366.189"
             style="fill:none;stroke:#000000;stroke-width:5.90551186;stroke-linecap:round;stroke-linejoin:round;stroke-miterlimit:10;stroke-dasharray:none;stroke-opacity:1"
             id="path4890"
             inkscape:connector-curvature="0" /><path
             d="m 5041,3662 -258,0"
             style="fill:none;stroke:#000000;stroke-width:5.90551186;stroke-linecap:round;stroke-linejoin:round;stroke-miterlimit:10;stroke-dasharray:none;stroke-opacity:1"
             id="path4892"
             inkscape:connector-curvature="0" /><path
             d="m 5041,2929 -258,0"
             style="fill:none;stroke:#000000;stroke-width:5.90551186;stroke-linecap:round;stroke-linejoin:round;stroke-miterlimit:10;stroke-dasharray:none;stroke-opacity:1"
             id="path4894"
             inkscape:connector-curvature="0" /><path
             d="m 2179,5791 0,-258"
             style="fill:none;stroke:#000000;stroke-width:5.90551186;stroke-linecap:round;stroke-linejoin:round;stroke-miterlimit:10;stroke-dasharray:none;stroke-opacity:1"
             id="path4896"
             inkscape:connector-curvature="0" /><path
             d="m 2912,5791 0,-258"
             style="fill:none;stroke:#000000;stroke-width:5.90551186;stroke-linecap:round;stroke-linejoin:round;stroke-miterlimit:10;stroke-dasharray:none;stroke-opacity:1"
             id="path4898"
             inkscape:connector-curvature="0" /><path
             d="m 2912,1058 c 0.022,202.2527 -163.9261,366.2011 -366.1667,366.2011 -202.2405,0 -366.1889,-163.9484 -366.1889,-366.1889"
             style="fill:none;stroke:#000000;stroke-width:5.90551186;stroke-linecap:round;stroke-linejoin:round;stroke-miterlimit:10;stroke-dasharray:none;stroke-opacity:1"
             id="path4900"
             inkscape:connector-curvature="0" /><path
             d="M 2179,5791 C 1077.331,5630.0221 211.64453,4764.3356 49.918301,3662.0223"
             style="fill:none;stroke:#000000;stroke-width:5.90551186;stroke-linecap:round;stroke-linejoin:round;stroke-miterlimit:10;stroke-dasharray:none;stroke-opacity:1"
             id="path4902"
             inkscape:connector-curvature="0" /><path
             d="m 2912,1058 0,-259"
             style="fill:none;stroke:#000000;stroke-width:5.90551186;stroke-linecap:round;stroke-linejoin:round;stroke-miterlimit:10;stroke-dasharray:none;stroke-opacity:1"
             id="path4904"
             inkscape:connector-curvature="0" /><path
             d="m 2179,1058 0,-259"
             style="fill:none;stroke:#000000;stroke-width:5.90551186;stroke-linecap:round;stroke-linejoin:round;stroke-miterlimit:10;stroke-dasharray:none;stroke-opacity:1"
             id="path4906"
             inkscape:connector-curvature="0" /><path
             d="m 308,2929 -259,0"
             style="fill:none;stroke:#000000;stroke-width:5.90551186;stroke-linecap:round;stroke-linejoin:round;stroke-miterlimit:10;stroke-dasharray:none;stroke-opacity:1"
             id="path4908"
             inkscape:connector-curvature="0" /><path
             d="m 308,3662 -259,0"
             style="fill:none;stroke:#000000;stroke-width:5.90551186;stroke-linecap:round;stroke-linejoin:round;stroke-miterlimit:10;stroke-dasharray:none;stroke-opacity:1"
             id="path4910"
             inkscape:connector-curvature="0" /><path
             d="M 2179,5791 C 1077.331,5630.0221 211.64453,4764.3356 49.918301,3662.0223"
             style="fill:none;stroke:#000000;stroke-width:5.90551186;stroke-linecap:round;stroke-linejoin:round;stroke-miterlimit:10;stroke-dasharray:none;stroke-opacity:1"
             id="path4912"
             inkscape:connector-curvature="0" /><path
             d="m 3067,4352 c 0.6119,-47.9676 40.2509,-87.6067 89.1482,-87.6067 48.8973,0 88.5363,39.6391 88.5363,88.5364 0,48.8973 -39.639,88.5363 -88.5363,88.5363 -48.8973,0 -88.5363,-39.639 -88.5363,-88.5363"
             style="fill:none;stroke:#000000;stroke-width:5.90551186;stroke-linecap:round;stroke-linejoin:round;stroke-miterlimit:10;stroke-dasharray:none;stroke-opacity:1"
             id="path4914"
             inkscape:connector-curvature="0" /><path
             d="m 1846,4352 c 0.9821,-47.9676 40.6212,-87.6067 89.5185,-87.6067 48.8972,0 88.5363,39.6391 88.5363,88.5364 0,48.8973 -39.6391,88.5363 -88.5363,88.5363 -48.8973,0 -88.5364,-39.639 -88.5364,-88.5363"
             style="fill:none;stroke:#000000;stroke-width:5.90551186;stroke-linecap:round;stroke-linejoin:round;stroke-miterlimit:10;stroke-dasharray:none;stroke-opacity:1"
             id="path4916"
             inkscape:connector-curvature="0" /><path
             d="m 3677,3295 c 0.9267,-48.0639 40.5658,-87.703 89.4631,-87.703 48.8972,0 88.5363,39.6391 88.5363,88.5363 0,48.8973 -39.6391,88.5364 -88.5363,88.5364 -48.8973,0 -88.5364,-39.6391 -88.5364,-88.5364"
             style="fill:none;stroke:#000000;stroke-width:5.90551186;stroke-linecap:round;stroke-linejoin:round;stroke-miterlimit:10;stroke-dasharray:none;stroke-opacity:1"
             id="path4918"
             inkscape:connector-curvature="0" /><path
             d="m 3067,2238 c 0.6119,-48.1603 40.2509,-87.7994 89.1482,-87.7994 48.8973,0 88.5363,39.6391 88.5363,88.5364 0,48.8973 -39.639,88.5363 -88.5363,88.5363 -48.8973,0 -88.5363,-39.639 -88.5363,-88.5363"
             style="fill:none;stroke:#000000;stroke-width:5.90551186;stroke-linecap:round;stroke-linejoin:round;stroke-miterlimit:10;stroke-dasharray:none;stroke-opacity:1"
             id="path4920"
             inkscape:connector-curvature="0" /><path
             d="m 1846,2238 c 0.9821,-48.1603 40.6212,-87.7994 89.5185,-87.7994 48.8972,0 88.5363,39.6391 88.5363,88.5364 0,48.8973 -39.6391,88.5363 -88.5363,88.5363 -48.8973,0 -88.5364,-39.639 -88.5364,-88.5363"
             style="fill:none;stroke:#000000;stroke-width:5.90551186;stroke-linecap:round;stroke-linejoin:round;stroke-miterlimit:10;stroke-dasharray:none;stroke-opacity:1"
             id="path4922"
             inkscape:connector-curvature="0" /><path
             d="m 1236,3295 c 0.6673,-48.0639 40.3063,-87.703 89.2036,-87.703 48.8973,0 88.5364,39.6391 88.5364,88.5363 0,48.8973 -39.6391,88.5364 -88.5364,88.5364 -48.8973,0 -88.5363,-39.6391 -88.5363,-88.5364"
             style="fill:none;stroke:#000000;stroke-width:5.90551186;stroke-linecap:round;stroke-linejoin:round;stroke-miterlimit:10;stroke-dasharray:none;stroke-opacity:1"
             id="path4924"
             inkscape:connector-curvature="0" /><path
             d="M 49,2929 C 211.64453,1827.331 1077.331,961.64454 2179.6444,799.9183"
             style="fill:none;stroke:#000000;stroke-width:5.90551186;stroke-linecap:round;stroke-linejoin:round;stroke-miterlimit:10;stroke-dasharray:none;stroke-opacity:1"
             id="path4926"
             inkscape:connector-curvature="0" /><path
             d="M 5041,3662 C 4880.0221,4764.3356 4014.3356,5630.0221 2912.0223,5791.7484"
             style="fill:none;stroke:#000000;stroke-width:5.90551186;stroke-linecap:round;stroke-linejoin:round;stroke-miterlimit:10;stroke-dasharray:none;stroke-opacity:1"
             id="path4928"
             inkscape:connector-curvature="0" /><path
             d="M 5041,3662 C 4880.0221,4764.3356 4014.3356,5630.0221 2912.0223,5791.7484"
             style="fill:none;stroke:#000000;stroke-width:5.90551186;stroke-linecap:round;stroke-linejoin:round;stroke-miterlimit:10;stroke-dasharray:none;stroke-opacity:1"
             id="path4930"
             inkscape:connector-curvature="0" /><path
             d="M 2912,799 C 4014.3356,961.64454 4880.0221,1827.331 5041.7484,2929.6444"
             style="fill:none;stroke:#000000;stroke-width:5.90551186;stroke-linecap:round;stroke-linejoin:round;stroke-miterlimit:10;stroke-dasharray:none;stroke-opacity:1"
             id="path4932"
             inkscape:connector-curvature="0" /><path
             d="M 2912,799 C 4014.3356,961.64454 4880.0221,1827.331 5041.7484,2929.6444"
             style="fill:none;stroke:#000000;stroke-width:5.90551186;stroke-linecap:round;stroke-linejoin:round;stroke-miterlimit:10;stroke-dasharray:none;stroke-opacity:1"
             id="path4934"
             inkscape:connector-curvature="0" /><path
             d="M 49,2929 C 211.64453,1827.331 1077.331,961.64454 2179.6444,799.9183"
             style="fill:none;stroke:#000000;stroke-width:5.90551186;stroke-linecap:round;stroke-linejoin:round;stroke-miterlimit:10;stroke-dasharray:none;stroke-opacity:1"
             id="path4936"
             inkscape:connector-curvature="0" /></g></g></g><g
       id="g4938"><g
         id="g4940"
         clip-path="url(#clipPath4942)"><g
           id="g4946"
           transform="scale(0.12,0.12)" /></g></g></g></svg>