  0
SECTION
  2
HEADER
  9
$ACADVER
  1
AC1014
  9
$ACADMAINTVER
 70
     9
  9
$DWGCODEPAGE
  3
ANSI_1252
  9
$INSBASE
 10
0.0
 20
0.0
 30
0.0
  9
$EXTMIN
 10
0.0683286103814829
 20
0.1509665090481132
 30
0.0
  9
$EXTMAX
 10
8.055953041472588
 20
10.48466645876259
 30
0.0
  9
$LIMMIN
 10
0.0
 20
0.0
  9
$LIMMAX
 10
12.0
 20
9.0
  9
$ORTHOMODE
 70
     0
  9
$REGENMODE
 70
     1
  9
$FILLMODE
 70
     1
  9
$QTEXTMODE
 70
     0
  9
$MIRRTEXT
 70
     0
  9
$DRAGMODE
 70
     2
  9
$LTSCALE
 40
1.0
  9
$OSMODE
 70
   511
  9
$ATTMODE
 70
     1
  9
$TEXTSIZE
 40
0.2
  9
$TRACEWID
 40
0.05
  9
$TEXTSTYLE
  7
STANDARD
  9
$CLAYER
  8
0
  9
$CELTYPE
  6
BYLAYER
  9
$CECOLOR
 62
   256
  9
$CELTSCALE
 40
1.0
  9
$DELOBJ
 70
     1
  9
$DISPSILH
 70
     0
  9
$DIMSCALE
 40
1.0
  9
$DIMASZ
 40
0.18
  9
$DIMEXO
 40
0.0625
  9
$DIMDLI
 40
0.38
  9
$DIMRND
 40
0.001
  9
$DIMDLE
 40
0.0
  9
$DIMEXE
 40
0.18
  9
$DIMTP
 40
0.0
  9
$DIMTM
 40
0.0
  9
$DIMTXT
 40
0.18
  9
$DIMCEN
 40
0.09
  9
$DIMTSZ
 40
0.0
  9
$DIMTOL
 70
     0
  9
$DIMLIM
 70
     0
  9
$DIMTIH
 70
     1
  9
$DIMTOH
 70
     1
  9
$DIMSE1
 70
     0
  9
$DIMSE2
 70
     0
  9
$DIMTAD
 70
     0
  9
$DIMZIN
 70
     0
  9
$DIMBLK
  1

  9
$DIMASO
 70
     1
  9
$DIMSHO
 70
     1
  9
$DIMPOST
  1

  9
$DIMAPOST
  1

  9
$DIMALT
 70
     0
  9
$DIMALTD
 70
     2
  9
$DIMALTF
 40
25.4
  9
$DIMLFAC
 40
1.0
  9
$DIMTOFL
 70
     0
  9
$DIMTVP
 40
0.0
  9
$DIMTIX
 70
     0
  9
$DIMSOXD
 70
     0
  9
$DIMSAH
 70
     0
  9
$DIMBLK1
  1

  9
$DIMBLK2
  1

  9
$DIMSTYLE
  2
STANDARD
  9
$DIMCLRD
 70
     0
  9
$DIMCLRE
 70
     0
  9
$DIMCLRT
 70
     0
  9
$DIMTFAC
 40
1.0
  9
$DIMGAP
 40
0.09
  9
$DIMJUST
 70
     0
  9
$DIMSD1
 70
     0
  9
$DIMSD2
 70
     0
  9
$DIMTOLJ
 70
     1
  9
$DIMTZIN
 70
     0
  9
$DIMALTZ
 70
     0
  9
$DIMALTTZ
 70
     0
  9
$DIMFIT
 70
     3
  9
$DIMUPT
 70
     0
  9
$DIMUNIT
 70
     3
  9
$DIMDEC
 70
     3
  9
$DIMTDEC
 70
     4
  9
$DIMALTU
 70
     2
  9
$DIMALTTD
 70
     2
  9
$DIMTXSTY
  7
STANDARD
  9
$DIMAUNIT
 70
     0
  9
$LUNITS
 70
     2
  9
$LUPREC
 70
     4
  9
$SKETCHINC
 40
0.1
  9
$FILLETRAD
 40
0.0
  9
$AUNITS
 70
     0
  9
$AUPREC
 70
     0
  9
$MENU
  1
.
  9
$ELEVATION
 40
0.0
  9
$PELEVATION
 40
0.0
  9
$THICKNESS
 40
0.0
  9
$LIMCHECK
 70
     0
  9
$CHAMFERA
 40
0.0
  9
$CHAMFERB
 40
0.0
  9
$CHAMFERC
 40
0.0
  9
$CHAMFERD
 40
0.0
  9
$SKPOLY
 70
     0
  9
$TDCREATE
 40
2452642.813384271
  9
$TDUPDATE
 40
2457645.776908021
  9
$TDINDWG
 40
0.0103563657
  9
$TDUSRTIMER
 40
2457646.017032049
  9
$USRTIMER
 70
     1
  9
$ANGBASE
 50
0.0
  9
$ANGDIR
 70
     0
  9
$PDMODE
 70
     0
  9
$PDSIZE
 40
0.0
  9
$PLINEWID
 40
0.0
  9
$COORDS
 70
     1
  9
$SPLFRAME
 70
     0
  9
$SPLINETYPE
 70
     6
  9
$SPLINESEGS
 70
     8
  9
$ATTDIA
 70
     0
  9
$ATTREQ
 70
     1
  9
$HANDLING
 70
     1
  9
$HANDSEED
  5
37E
  9
$SURFTAB1
 70
     6
  9
$SURFTAB2
 70
     6
  9
$SURFTYPE
 70
     6
  9
$SURFU
 70
     6
  9
$SURFV
 70
     6
  9
$UCSNAME
  2

  9
$UCSORG
 10
0.0
 20
0.0
 30
0.0
  9
$UCSXDIR
 10
1.0
 20
0.0
 30
0.0
  9
$UCSYDIR
 10
0.0
 20
1.0
 30
0.0
  9
$PUCSNAME
  2

  9
$PUCSORG
 10
0.0
 20
0.0
 30
0.0
  9
$PUCSXDIR
 10
1.0
 20
0.0
 30
0.0
  9
$PUCSYDIR
 10
0.0
 20
1.0
 30
0.0
  9
$USERI1
 70
     0
  9
$USERI2
 70
     0
  9
$USERI3
 70
     0
  9
$USERI4
 70
     0
  9
$USERI5
 70
     0
  9
$USERR1
 40
0.0
  9
$USERR2
 40
0.0
  9
$USERR3
 40
0.0
  9
$USERR4
 40
0.0
  9
$USERR5
 40
0.0
  9
$WORLDVIEW
 70
     1
  9
$SHADEDGE
 70
     3
  9
$SHADEDIF
 70
    70
  9
$TILEMODE
 70
     1
  9
$MAXACTVP
 70
    64
  9
$PINSBASE
 10
0.0
 20
0.0
 30
0.0
  9
$PLIMCHECK
 70
     0
  9
$PEXTMIN
 10
0.0
 20
0.0
 30
0.0
  9
$PEXTMAX
 10
0.0
 20
0.0
 30
0.0
  9
$PLIMMIN
 10
0.0
 20
0.0
  9
$PLIMMAX
 10
0.0
 20
0.0
  9
$UNITMODE
 70
     0
  9
$VISRETAIN
 70
     1
  9
$PLINEGEN
 70
     0
  9
$PSLTSCALE
 70
     1
  9
$TREEDEPTH
 70
  3020
  9
$PICKSTYLE
 70
     1
  9
$CMLSTYLE
  2
STANDARD
  9
$CMLJUST
 70
     0
  9
$CMLSCALE
 40
1.0
  9
$PROXYGRAPHICS
 70
     1
  9
$MEASUREMENT
 70
     0
  0
ENDSEC
  0
SECTION
  2
CLASSES
  0
CLASS
  1
ACDBDICTIONARYWDFLT
  2
AcDbDictionaryWithDefault
  3
ObjectDBX Classes
 90
        0
280
     0
281
     0
  0
CLASS
  1
ACDBPLACEHOLDER
  2
AcDbPlaceHolder
  3
ObjectDBX Classes
 90
        0
280
     0
281
     0
  0
CLASS
  1
LAYOUT
  2
AcDbLayout
  3
ObjectDBX Classes
 90
        0
280
     0
281
     0
  0
CLASS
  1
DICTIONARYVAR
  2
AcDbDictionaryVar
  3
ObjectDBX Classes
 90
        0
280
     0
281
     0
  0
CLASS
  1
TABLESTYLE
  2
AcDbTableStyle
  3
ObjectDBX Classes
 90
     4095
280
     0
281
     0
  0
CLASS
  1
MATERIAL
  2
AcDbMaterial
  3
ObjectDBX Classes
 90
     1153
280
     0
281
     0
  0
CLASS
  1
VISUALSTYLE
  2
AcDbVisualStyle
  3
ObjectDBX Classes
 90
     4095
280
     0
281
     0
  0
CLASS
  1
SCALE
  2
AcDbScale
  3
ObjectDBX Classes
 90
     1153
280
     0
281
     0
  0
CLASS
  1
CELLSTYLEMAP
  2
AcDbCellStyleMap
  3
ObjectDBX Classes
 90
     1152
280
     0
281
     0
  0
CLASS
  1
RASTERVARIABLES
  2
AcDbRasterVariables
  3
ISM
 90
        0
280
     0
281
     0
  0
CLASS
  1
SUN
  2
AcDbSun
  3
SCENEOE
 90
     1153
280
     0
281
     0
  0
CLASS
  1
MLEADERSTYLE
  2
AcDbMLeaderStyle
  3
ACDB_MLEADERSTYLE_CLASS
 90
     4095
280
     0
281
     0
  0
CLASS
  1
DIMASSOC
  2
AcDbDimAssoc
  3
"AcDbDimAssoc|Product Desc:     AcDim ARX App For Dimension|Company:          Autodesk, Inc.|WEB Address:      www.autodesk.com"
 90
        0
280
     0
281
     0
  0
CLASS
  1
XRECORD
  2
AcDbXrecord
  3
ObjectDBX Classes
 90
        0
280
     0
281
     0
  0
CLASS
  1
LWPOLYLINE
  2
AcDbPolyline
  3
ObjectDBX Classes
 90
        0
280
     0
281
     1
  0
CLASS
  1
HATCH
  2
AcDbHatch
  3
ObjectDBX Classes
 90
        0
280
     0
281
     1
  0
ENDSEC
  0
SECTION
  2
TABLES
  0
TABLE
  2
VPORT
  5
8
330
0
100
AcDbSymbolTable
 70
     1
  0
VPORT
  5
94
330
8
100
AcDbSymbolTableRecord
100
AcDbViewportTableRecord
  2
*ACTIVE
 70
     0
 10
0.0
 20
0.0
 11
1.0
 21
1.0
 12
31.48665278860407
 22
24.21577962807001
 13
0.0
 23
0.0
 14
0.5
 24
0.5
 15
0.1
 25
0.1
 16
0.0
 26
0.0
 36
1.0
 17
-27.66959356597984
 27
-19.53870295786203
 37
0.0
 40
13.75714285714286
 41
2.79291553133515
 42
50.0
 43
0.0
 44
0.0
 50
0.0
 51
0.0
 71
    16
 72
  1000
 73
     1
 74
     3
 75
     0
 76
     1
 77
     0
 78
     0
  0
ENDTAB
  0
TABLE
  2
LTYPE
  5
5
330
0
100
AcDbSymbolTable
 70
     1
  0
LTYPE
  5
14
330
5
100
AcDbSymbolTableRecord
100
AcDbLinetypeTableRecord
  2
BYBLOCK
 70
     0
  3

 72
    65
 73
     0
 40
0.0
  0
LTYPE
  5
15
330
5
100
AcDbSymbolTableRecord
100
AcDbLinetypeTableRecord
  2
BYLAYER
 70
     0
  3

 72
    65
 73
     0
 40
0.0
  0
LTYPE
  5
16
330
5
100
AcDbSymbolTableRecord
100
AcDbLinetypeTableRecord
  2
CONTINUOUS
 70
     0
  3
Solid line
 72
    65
 73
     0
 40
0.0
  0
ENDTAB
  0
TABLE
  2
LAYER
  5
2
330
0
100
AcDbSymbolTable
 70
     2
  0
LAYER
  5
10
330
2
100
AcDbSymbolTableRecord
100
AcDbLayerTableRecord
  2
0
 70
     0
 62
     7
  6
CONTINUOUS
  0
LAYER
  5
12C
330
2
100
AcDbSymbolTableRecord
100
AcDbLayerTableRecord
  2
DEFPOINTS
 70
     0
 62
     7
  6
CONTINUOUS
  0
ENDTAB
  0
TABLE
  2
STYLE
  5
3
330
0
100
AcDbSymbolTable
 70
     2
  0
STYLE
  5
11
330
3
100
AcDbSymbolTableRecord
100
AcDbTextStyleTableRecord
  2
STANDARD
 70
     0
 40
0.0
 41
1.0
 50
0.0
 71
     0
 42
0.2
  3
arial.ttf
  4

1001
ACAD
1000
Arial
1071
        0
  0
STYLE
  5
125
330
3
100
AcDbSymbolTableRecord
100
AcDbTextStyleTableRecord
  2
ANNOTATIVE
 70
     0
 40
0.0
 41
1.0
 50
0.0
 71
     0
 42
0.2
  3
arial.ttf
  4

1001
ACAD
1000
Arial
1071
        0
1001
ACADANNOTATIVE
1000
AnnotativeData
1002
{
1070
     1
1070
     1
1002
}
  0
ENDTAB
  0
TABLE
  2
VIEW
  5
6
330
0
100
AcDbSymbolTable
 70
     0
  0
ENDTAB
  0
TABLE
  2
UCS
  5
7
330
0
100
AcDbSymbolTable
 70
     0
  0
ENDTAB
  0
TABLE
  2
APPID
  5
9
330
0
100
AcDbSymbolTable
 70
     3
  0
APPID
  5
12
330
9
100
AcDbSymbolTableRecord
100
AcDbRegAppTableRecord
  2
ACAD
 70
     0
  0
APPID
  5
126
330
9
100
AcDbSymbolTableRecord
100
AcDbRegAppTableRecord
  2
ACADANNOTATIVE
 70
     0
  0
APPID
  5
160
330
9
100
AcDbSymbolTableRecord
100
AcDbRegAppTableRecord
  2
ACAD_DSTYLE_DIMRADIAL_EXTE
 70
     0
  0
ENDTAB
  0
TABLE
  2
DIMSTYLE
  5
A
330
0
100
AcDbSymbolTable
 70
     2
  0
DIMSTYLE
105
27
102
{ACAD_REACTORS
330
2A3
330
2B3
330
2C1
330
2CF
330
2DD
330
2ED
330
2FD
330
30D
330
31D
330
32D
330
33D
330
34D
330
35D
330
36D
102
}
330
A
100
AcDbSymbolTableRecord
100
AcDbDimStyleTableRecord
  2
STANDARD
 70
     0
  3

  4

  5

  6

  7

 40
1.0
 41
0.18
 42
0.0625
 43
0.38
 44
0.18
 45
0.001
 46
0.0
 47
0.0
 48
0.0
140
0.18
141
0.09
142
0.0
143
25.4
144
1.0
145
0.0
146
1.0
147
0.09
 71
     0
 72
     0
 73
     1
 74
     1
 75
     0
 76
     0
 77
     0
 78
     0
170
     0
171
     2
172
     0
173
     0
174
     0
175
     0
176
     0
177
     0
178
     0
270
     3
271
     3
272
     4
273
     2
274
     2
340
11
275
     0
280
     0
281
     0
282
     0
283
     1
284
     0
285
     0
286
     0
287
     3
288
     0
  0
DIMSTYLE
105
127
330
A
100
AcDbSymbolTableRecord
100
AcDbDimStyleTableRecord
  2
ANNOTATIVE
 70
     0
  3

  4

  5

  6

  7

 40
0.0
 41
0.18
 42
0.0625
 43
0.38
 44
0.18
 45
0.0
 46
0.0
 47
0.0
 48
0.0
140
0.18
141
0.09
142
0.0
143
25.4
144
1.0
145
0.0
146
1.0
147
0.09
 71
     0
 72
     0
 73
     1
 74
     1
 75
     0
 76
     0
 77
     0
 78
     0
170
     0
171
     2
172
     0
173
     0
174
     0
175
     0
176
     0
177
     0
178
     0
270
     2
271
     4
272
     4
273
     2
274
     2
340
11
275
     0
280
     0
281
     0
282
     0
283
     1
284
     0
285
     0
286
     0
287
     3
288
     0
1001
ACADANNOTATIVE
1000
AnnotativeData
1002
{
1070
     1
1070
     1
1002
}
  0
ENDTAB
  0
TABLE
  2
BLOCK_RECORD
  5
1
330
0
100
AcDbSymbolTable
 70
    24
  0
BLOCK_RECORD
  5
1F
330
1
100
AcDbSymbolTableRecord
100
AcDbBlockTableRecord
  2
*MODEL_SPACE
  0
BLOCK_RECORD
  5
58
330
1
100
AcDbSymbolTableRecord
100
AcDbBlockTableRecord
  2
*PAPER_SPACE
  0
BLOCK_RECORD
  5
5D
330
1
100
AcDbSymbolTableRecord
100
AcDbBlockTableRecord
  2
*PAPER_SPACE0
  0
BLOCK_RECORD
  5
1D4
330
1
100
AcDbSymbolTableRecord
100
AcDbBlockTableRecord
  2
*D4
  0
BLOCK_RECORD
  5
1E4
330
1
100
AcDbSymbolTableRecord
100
AcDbBlockTableRecord
  2
*D5
  0
BLOCK_RECORD
  5
28E
330
1
100
AcDbSymbolTableRecord
100
AcDbBlockTableRecord
  2
*D9
  0
BLOCK_RECORD
  5
2A6
330
1
100
AcDbSymbolTableRecord
100
AcDbBlockTableRecord
  2
*D10
  0
BLOCK_RECORD
  5
2B6
330
1
100
AcDbSymbolTableRecord
100
AcDbBlockTableRecord
  2
*D11
  0
BLOCK_RECORD
  5
2C4
330
1
100
AcDbSymbolTableRecord
100
AcDbBlockTableRecord
  2
*D12
  0
BLOCK_RECORD
  5
2D2
330
1
100
AcDbSymbolTableRecord
100
AcDbBlockTableRecord
  2
*D13
  0
BLOCK_RECORD
  5
2E0
330
1
100
AcDbSymbolTableRecord
100
AcDbBlockTableRecord
  2
*D14
  0
BLOCK_RECORD
  5
2F0
330
1
100
AcDbSymbolTableRecord
100
AcDbBlockTableRecord
  2
*D15
  0
BLOCK_RECORD
  5
300
330
1
100
AcDbSymbolTableRecord
100
AcDbBlockTableRecord
  2
*D16
  0
BLOCK_RECORD
  5
310
330
1
100
AcDbSymbolTableRecord
100
AcDbBlockTableRecord
  2
*D17
  0
BLOCK_RECORD
  5
320
330
1
100
AcDbSymbolTableRecord
100
AcDbBlockTableRecord
  2
*D18
  0
BLOCK_RECORD
  5
330
330
1
100
AcDbSymbolTableRecord
100
AcDbBlockTableRecord
  2
*D19
  0
BLOCK_RECORD
  5
340
330
1
100
AcDbSymbolTableRecord
100
AcDbBlockTableRecord
  2
*D20
  0
BLOCK_RECORD
  5
350
330
1
100
AcDbSymbolTableRecord
100
AcDbBlockTableRecord
  2
*D21
  0
BLOCK_RECORD
  5
360
330
1
100
AcDbSymbolTableRecord
100
AcDbBlockTableRecord
  2
*D22
  0
BLOCK_RECORD
  5
370
330
1
100
AcDbSymbolTableRecord
100
AcDbBlockTableRecord
  2
*D23
  0
ENDTAB
  0
ENDSEC
  0
SECTION
  2
BLOCKS
  0
BLOCK
  5
20
330
1F
100
AcDbEntity
  8
0
100
AcDbBlockBegin
  2
*MODEL_SPACE
 70
     0
 10
0.0
 20
0.0
 30
0.0
  3
*MODEL_SPACE
  1

  0
ENDBLK
  5
21
330
1F
100
AcDbEntity
  8
0
100
AcDbBlockEnd
  0
BLOCK
  5
5A
330
58
100
AcDbEntity
 67
     1
  8
0
100
AcDbBlockBegin
  2
*PAPER_SPACE
 70
     0
 10
0.0
 20
0.0
 30
0.0
  3
*PAPER_SPACE
  1

  0
ENDBLK
  5
5B
330
58
100
AcDbEntity
 67
     1
  8
0
100
AcDbBlockEnd
  0
BLOCK
  5
5F
330
5D
100
AcDbEntity
  8
0
100
AcDbBlockBegin
  2
*PAPER_SPACE0
 70
     0
 10
0.0
 20
0.0
 30
0.0
  3
*PAPER_SPACE0
  1
*PAPER_SPACE0
  0
ENDBLK
  5
60
330
5D
100
AcDbEntity
  8
0
100
AcDbBlockEnd
  0
BLOCK
  5
1D5
330
1D4
100
AcDbEntity
  8
0
100
AcDbBlockBegin
  2
*D4
 70
     1
 10
0.0
 20
0.0
 30
0.0
  3
*D4
  1
*D4
  0
LINE
  5
1D7
330
1D4
100
AcDbEntity
  8
0
 62
     0
100
AcDbLine
 10
7.276348610381483
 20
9.758723708384782
 30
0.0
 11
10.1746326784788
 21
9.758723708384782
 31
0.0
  0
LINE
  5
1D8
330
1D4
100
AcDbEntity
  8
0
 62
     0
100
AcDbLine
 10
7.276348610381483
 20
0.7587237083847818
 30
0.0
 11
10.1746326784788
 21
0.7587237083847815
 31
0.0
  0
LINE
  5
1D9
330
1D4
100
AcDbEntity
  8
0
 62
     0
100
AcDbLine
 10
9.994632678478801
 20
9.578723708384782
 30
0.0
 11
9.994632678478801
 21
5.440613708384783
 31
0.0
  0
LINE
  5
1DA
330
1D4
100
AcDbEntity
  8
0
 62
     0
100
AcDbLine
 10
9.994632678478801
 20
0.9387237083847815
 30
0.0
 11
9.994632678478801
 21
5.07683370838478
 31
0.0
  0
SOLID
  5
1DB
330
1D4
100
AcDbEntity
  8
0
 62
     0
100
AcDbTrace
 10
10.0246326784788
 20
9.578723708384782
 30
0.0
 11
9.964632678478802
 21
9.578723708384782
 31
0.0
 12
9.994632678478801
 22
9.758723708384782
 32
0.0
 13
9.994632678478801
 23
9.758723708384782
 33
0.0
  0
SOLID
  5
1DC
330
1D4
100
AcDbEntity
  8
0
 62
     0
100
AcDbTrace
 10
9.964632678478802
 20
0.9387237083847815
 30
0.0
 11
10.0246326784788
 21
0.9387237083847815
 31
0.0
 12
9.994632678478801
 22
0.7587237083847815
 32
0.0
 13
9.994632678478801
 23
0.7587237083847815
 33
0.0
  0
MTEXT
  5
1DD
330
1D4
100
AcDbEntity
  8
0
 62
     0
100
AcDbMText
 10
9.994632678478801
 20
5.258723708384782
 30
0.0
 40
0.18
 41
0.0
 71
     5
 72
     1
  1
\A1;9.000"
  0
POINT
  5
1DE
330
1D4
100
AcDbEntity
  8
DEFPOINTS
 62
     0
100
AcDbPoint
 10
7.213848610381483
 20
9.758723708384782
 30
0.0
  0
POINT
  5
1DF
330
1D4
100
AcDbEntity
  8
DEFPOINTS
 62
     0
100
AcDbPoint
 10
7.213848610381483
 20
0.7587237083847818
 30
0.0
  0
POINT
  5
1E0
330
1D4
100
AcDbEntity
  8
DEFPOINTS
 62
     0
100
AcDbPoint
 10
9.994632678478801
 20
0.7587237083847815
 30
0.0
  0
ENDBLK
  5
1D6
330
1D4
100
AcDbEntity
  8
0
100
AcDbBlockEnd
  0
BLOCK
  5
1E5
330
1E4
100
AcDbEntity
  8
0
100
AcDbBlockBegin
  2
*D5
 70
     1
 10
0.0
 20
0.0
 30
0.0
  3
*D5
  1
*D5
  0
LINE
  5
1E7
330
1E4
100
AcDbEntity
  8
0
 62
     0
100
AcDbLine
 10
1.213848610381483
 20
9.821223708384782
 30
0.0
 11
1.213848610381483
 21
10.55446082854725
 31
0.0
  0
LINE
  5
1E8
330
1E4
100
AcDbEntity
  8
0
 62
     0
100
AcDbLine
 10
7.213848610381483
 20
9.821223708384782
 30
0.0
 11
7.213848610381483
 21
10.55446082854725
 31
0.0
  0
LINE
  5
1E9
330
1E4
100
AcDbEntity
  8
0
 62
     0
100
AcDbLine
 10
1.393848610381483
 20
10.37446082854725
 30
0.0
 11
3.775548610381483
 21
10.37446082854725
 31
0.0
  0
LINE
  5
1EA
330
1E4
100
AcDbEntity
  8
0
 62
     0
100
AcDbLine
 10
7.033848610381483
 20
10.37446082854725
 30
0.0
 11
4.652148610381483
 21
10.37446082854725
 31
0.0
  0
SOLID
  5
1EB
330
1E4
100
AcDbEntity
  8
0
 62
     0
100
AcDbTrace
 10
1.393848610381483
 20
10.40446082854725
 30
0.0
 11
1.393848610381483
 21
10.34446082854725
 31
0.0
 12
1.213848610381483
 22
10.37446082854725
 32
0.0
 13
1.213848610381483
 23
10.37446082854725
 33
0.0
  0
SOLID
  5
1EC
330
1E4
100
AcDbEntity
  8
0
 62
     0
100
AcDbTrace
 10
7.033848610381483
 20
10.34446082854725
 30
0.0
 11
7.033848610381483
 21
10.40446082854725
 31
0.0
 12
7.213848610381483
 22
10.37446082854725
 32
0.0
 13
7.213848610381483
 23
10.37446082854725
 33
0.0
  0
MTEXT
  5
1ED
330
1E4
100
AcDbEntity
  8
0
 62
     0
100
AcDbMText
 10
4.213848610381483
 20
10.37446082854725
 30
0.0
 40
0.18
 41
0.0
 71
     5
 72
     1
  1
\A1;6.000"
  0
POINT
  5
1EE
330
1E4
100
AcDbEntity
  8
DEFPOINTS
 62
     0
100
AcDbPoint
 10
1.213848610381483
 20
9.758723708384782
 30
0.0
  0
POINT
  5
1EF
330
1E4
100
AcDbEntity
  8
DEFPOINTS
 62
     0
100
AcDbPoint
 10
7.213848610381483
 20
9.758723708384782
 30
0.0
  0
POINT
  5
1F0
330
1E4
100
AcDbEntity
  8
DEFPOINTS
 62
     0
100
AcDbPoint
 10
7.213848610381483
 20
10.37446082854725
 30
0.0
  0
ENDBLK
  5
1E6
330
1E4
100
AcDbEntity
  8
0
100
AcDbBlockEnd
  0
BLOCK
  5
28F
330
28E
100
AcDbEntity
  8
0
100
AcDbBlockBegin
  2
*D9
 70
     1
 10
0.0
 20
0.0
 30
0.0
  3
*D9
  1
*D9
  0
LINE
  5
291
330
28E
100
AcDbEntity
  8
0
 62
     0
100
AcDbLine
 10
6.776348610381483
 20
9.258723708384782
 30
0.0
 11
8.989800115251708
 21
9.258723708384782
 31
0.0
  0
LINE
  5
292
330
28E
100
AcDbEntity
  8
0
 62
     0
100
AcDbLine
 10
6.776348610381483
 20
6.258723708384782
 30
0.0
 11
8.989800115251708
 21
6.258723708384782
 31
0.0
  0
LINE
  5
293
330
28E
100
AcDbEntity
  8
0
 62
     0
100
AcDbLine
 10
8.809800115251708
 20
9.078723708384782
 30
0.0
 11
8.809800115251708
 21
7.940613708384782
 31
0.0
  0
LINE
  5
294
330
28E
100
AcDbEntity
  8
0
 62
     0
100
AcDbLine
 10
8.809800115251708
 20
6.438723708384781
 30
0.0
 11
8.809800115251708
 21
7.576833708384782
 31
0.0
  0
SOLID
  5
295
330
28E
100
AcDbEntity
  8
0
 62
     0
100
AcDbTrace
 10
8.839800115251707
 20
9.078723708384782
 30
0.0
 11
8.779800115251708
 21
9.078723708384782
 31
0.0
 12
8.809800115251708
 22
9.258723708384782
 32
0.0
 13
8.809800115251708
 23
9.258723708384782
 33
0.0
  0
SOLID
  5
296
330
28E
100
AcDbEntity
  8
0
 62
     0
100
AcDbTrace
 10
8.779800115251708
 20
6.438723708384781
 30
0.0
 11
8.839800115251707
 21
6.438723708384781
 31
0.0
 12
8.809800115251708
 22
6.258723708384782
 32
0.0
 13
8.809800115251708
 23
6.258723708384782
 33
0.0
  0
MTEXT
  5
297
330
28E
100
AcDbEntity
  8
0
 62
     0
100
AcDbMText
 10
8.809800115251708
 20
7.758723708384782
 30
0.0
 40
0.18
 41
0.0
 71
     5
 72
     1
  1
\A1;3.000"
  0
POINT
  5
298
330
28E
100
AcDbEntity
  8
DEFPOINTS
 62
     0
100
AcDbPoint
 10
6.713848610381483
 20
9.258723708384782
 30
0.0
  0
POINT
  5
299
330
28E
100
AcDbEntity
  8
DEFPOINTS
 62
     0
100
AcDbPoint
 10
6.713848610381483
 20
6.258723708384782
 30
0.0
  0
POINT
  5
29A
330
28E
100
AcDbEntity
  8
DEFPOINTS
 62
     0
100
AcDbPoint
 10
8.809800115251708
 20
6.258723708384782
 30
0.0
  0
ENDBLK
  5
290
330
28E
100
AcDbEntity
  8
0
100
AcDbBlockEnd
  0
BLOCK
  5
2A7
330
2A6
100
AcDbEntity
  8
0
100
AcDbBlockBegin
  2
*D10
 70
     1
 10
0.0
 20
0.0
 30
0.0
  3
*D10
  1
*D10
  0
LINE
  5
2A9
330
2A6
100
AcDbEntity
  8
0
 62
     0
100
AcDbLine
 10
1.551348610381482
 20
0.9462237083847818
 30
0.0
 11
1.551348610381482
 21
0.1509665090481131
 31
0.0
  0
LINE
  5
2AA
330
2A6
100
AcDbEntity
  8
0
 62
     0
100
AcDbLine
 10
3.559222610381482
 20
0.9462237083847818
 30
0.0
 11
3.559222610381482
 21
0.1509665090481131
 31
0.0
  0
LINE
  5
2AB
330
2A6
100
AcDbEntity
  8
0
 62
     0
100
AcDbLine
 10
1.731348610381482
 20
0.3309665090481131
 30
0.0
 11
2.115995610381483
 21
0.3309665090481131
 31
0.0
  0
LINE
  5
2AC
330
2A6
100
AcDbEntity
  8
0
 62
     0
100
AcDbLine
 10
3.379222610381482
 20
0.3309665090481131
 30
0.0
 11
2.994575610381482
 21
0.3309665090481131
 31
0.0
  0
SOLID
  5
2AD
330
2A6
100
AcDbEntity
  8
0
 62
     0
100
AcDbTrace
 10
1.731348610381482
 20
0.3609665090481131
 30
0.0
 11
1.731348610381482
 21
0.3009665090481131
 31
0.0
 12
1.551348610381482
 22
0.3309665090481131
 32
0.0
 13
1.551348610381482
 23
0.3309665090481131
 33
0.0
  0
SOLID
  5
2AE
330
2A6
100
AcDbEntity
  8
0
 62
     0
100
AcDbTrace
 10
3.379222610381482
 20
0.3009665090481131
 30
0.0
 11
3.379222610381482
 21
0.3609665090481131
 31
0.0
 12
3.559222610381482
 22
0.3309665090481131
 32
0.0
 13
3.559222610381482
 23
0.3309665090481131
 33
0.0
  0
MTEXT
  5
2AF
330
2A6
100
AcDbEntity
  8
0
 62
     0
100
AcDbMText
 10
2.555285610381482
 20
0.3309665090481131
 30
0.0
 40
0.18
 41
0.0
 71
     5
 72
     1
  1
\A1;2.008"
  0
POINT
  5
2B0
330
2A6
100
AcDbEntity
  8
DEFPOINTS
 62
     0
100
AcDbPoint
 10
1.551348610381482
 20
1.008723708384782
 30
0.0
  0
POINT
  5
2B1
330
2A6
100
AcDbEntity
  8
DEFPOINTS
 62
     0
100
AcDbPoint
 10
3.559222610381482
 20
1.008723708384782
 30
0.0
  0
POINT
  5
2B2
330
2A6
100
AcDbEntity
  8
DEFPOINTS
 62
     0
100
AcDbPoint
 10
3.559222610381482
 20
0.3309665090481131
 30
0.0
  0
ENDBLK
  5
2A8
330
2A6
100
AcDbEntity
  8
0
100
AcDbBlockEnd
  0
BLOCK
  5
2B7
330
2B6
100
AcDbEntity
  8
0
100
AcDbBlockBegin
  2
*D11
 70
     1
 10
0.0
 20
0.0
 30
0.0
  3
*D11
  1
*D11
  0
LINE
  5
2B9
330
2B6
100
AcDbEntity
  8
0
 62
     0
100
AcDbLine
 10
2.016017887687833
 20
1.392849730071254
 30
0.0
 11
1.836017887687833
 21
1.392849730071254
 31
0.0
  0
LINE
  5
2BA
330
2B6
100
AcDbEntity
  8
0
 62
     0
100
AcDbLine
 10
1.836017887687833
 20
1.392849730071254
 30
0.0
 11
1.728844968069533
 21
1.248233115187315
 31
0.0
  0
MTEXT
  5
2BB
330
2B6
100
AcDbEntity
  8
0
 62
     0
100
AcDbMText
 10
2.539817887687833
 20
1.392849730071254
 30
0.0
 40
0.18
 41
0.0
 71
     5
 72
     1
  1
\A1;R0.118"
  0
SOLID
  5
2BC
330
2B6
100
AcDbEntity
  8
0
 62
     0
100
AcDbTrace
 10
1.70474219892221
 20
1.266095268457032
 30
0.0
 11
1.752947737216856
 21
1.230370961917598
 31
0.0
 12
1.621672048451233
 22
1.103616500303377
 32
0.0
 13
1.621672048451233
 23
1.103616500303377
 33
0.0
  0
LINE
  5
2BD
330
2B6
100
AcDbEntity
  8
0
 62
     0
100
AcDbLine
 10
1.461348610381482
 20
1.008723708384782
 30
0.0
 11
1.641348610381482
 21
1.008723708384782
 31
0.0
  0
LINE
  5
2BE
330
2B6
100
AcDbEntity
  8
0
 62
     0
100
AcDbLine
 10
1.551348610381482
 20
0.9187237083847818
 30
0.0
 11
1.551348610381482
 21
1.098723708384782
 31
0.0
  0
POINT
  5
2BF
330
2B6
100
AcDbEntity
  8
DEFPOINTS
 62
     0
100
AcDbPoint
 10
1.621672048451233
 20
1.103616500303377
 30
0.0
  0
POINT
  5
2C0
330
2B6
100
AcDbEntity
  8
DEFPOINTS
 62
     0
100
AcDbPoint
 10
1.551348610381482
 20
1.008723708384782
 30
0.0
  0
ENDBLK
  5
2B8
330
2B6
100
AcDbEntity
  8
0
100
AcDbBlockEnd
  0
BLOCK
  5
2C5
330
2C4
100
AcDbEntity
  8
0
100
AcDbBlockBegin
  2
*D12
 70
     1
 10
0.0
 20
0.0
 30
0.0
  3
*D12
  1
*D12
  0
LINE
  5
2C7
330
2C4
100
AcDbEntity
  8
0
 62
     0
100
AcDbLine
 10
4.852914916021755
 20
3.308888926965166
 30
0.0
 11
4.672914916021754
 21
3.308888926965166
 31
0.0
  0
LINE
  5
2C8
330
2C4
100
AcDbEntity
  8
0
 62
     0
100
AcDbLine
 10
4.672914916021754
 20
3.308888926965166
 30
0.0
 11
4.583341002726091
 21
3.152759128217773
 31
0.0
  0
MTEXT
  5
2C9
330
2C4
100
AcDbEntity
  8
0
 62
     0
100
AcDbMText
 10
5.376714916021754
 20
3.308888926965166
 30
0.0
 40
0.18
 41
0.0
 71
     5
 72
     1
  1
\A1;R0.562"
  0
SOLID
  5
2CA
330
2C4
100
AcDbEntity
  8
0
 62
     0
100
AcDbTrace
 10
4.557319369601526
 20
3.167688113767051
 30
0.0
 11
4.609362635850657
 21
3.137830142668496
 31
0.0
 12
4.493767089430428
 22
2.996629329470382
 32
0.0
 13
4.493767089430428
 23
2.996629329470382
 33
0.0
  0
LINE
  5
2CB
330
2C4
100
AcDbEntity
  8
0
 62
     0
100
AcDbLine
 10
4.123848610381483
 20
2.508723708384782
 30
0.0
 11
4.303848610381483
 21
2.508723708384782
 31
0.0
  0
LINE
  5
2CC
330
2C4
100
AcDbEntity
  8
0
 62
     0
100
AcDbLine
 10
4.213848610381483
 20
2.418723708384782
 30
0.0
 11
4.213848610381483
 21
2.598723708384782
 31
0.0
  0
POINT
  5
2CD
330
2C4
100
AcDbEntity
  8
DEFPOINTS
 62
     0
100
AcDbPoint
 10
4.493767089430428
 20
2.996629329470382
 30
0.0
  0
POINT
  5
2CE
330
2C4
100
AcDbEntity
  8
DEFPOINTS
 62
     0
100
AcDbPoint
 10
4.213848610381483
 20
2.508723708384782
 30
0.0
  0
ENDBLK
  5
2C6
330
2C4
100
AcDbEntity
  8
0
100
AcDbBlockEnd
  0
BLOCK
  5
2D3
330
2D2
100
AcDbEntity
  8
0
100
AcDbBlockBegin
  2
*D13
 70
     1
 10
0.0
 20
0.0
 30
0.0
  3
*D13
  1
*D13
  0
LINE
  5
2D5
330
2D2
100
AcDbEntity
  8
0
 62
     0
100
AcDbLine
 10
2.618078039550064
 20
3.131478538125098
 30
0.0
 11
2.438078039550064
 21
3.131478538125098
 31
0.0
  0
LINE
  5
2D6
330
2D2
100
AcDbEntity
  8
0
 62
     0
100
AcDbLine
 10
2.438078039550064
 20
3.131478538125098
 30
0.0
 11
2.345293448169961
 21
2.977235160301519
 31
0.0
  0
MTEXT
  5
2D7
330
2D2
100
AcDbEntity
  8
0
 62
     0
100
AcDbMText
 10
3.141878039550064
 20
3.131478538125098
 30
0.0
 40
0.18
 41
0.0
 71
     5
 72
     1
  1
\A1;R0.075"
  0
SOLID
  5
2D8
330
2D2
100
AcDbEntity
  8
0
 62
     0
100
AcDbTrace
 10
2.319586218532698
 20
2.99269925886487
 30
0.0
 11
2.371000677807225
 21
2.961771061738169
 31
0.0
 12
2.252508856789859
 22
2.82299178247794
 32
0.0
 13
2.252508856789859
 23
2.82299178247794
 33
0.0
  0
LINE
  5
2D9
330
2D2
100
AcDbEntity
  8
0
 62
     0
100
AcDbLine
 10
2.123848610381483
 20
2.758723708384782
 30
0.0
 11
2.303848610381483
 21
2.758723708384782
 31
0.0
  0
LINE
  5
2DA
330
2D2
100
AcDbEntity
  8
0
 62
     0
100
AcDbLine
 10
2.213848610381483
 20
2.668723708384782
 30
0.0
 11
2.213848610381483
 21
2.848723708384782
 31
0.0
  0
POINT
  5
2DB
330
2D2
100
AcDbEntity
  8
DEFPOINTS
 62
     0
100
AcDbPoint
 10
2.252508856789859
 20
2.82299178247794
 30
0.0
  0
POINT
  5
2DC
330
2D2
100
AcDbEntity
  8
DEFPOINTS
 62
     0
100
AcDbPoint
 10
2.213848610381483
 20
2.758723708384782
 30
0.0
  0
ENDBLK
  5
2D4
330
2D2
100
AcDbEntity
  8
0
100
AcDbBlockEnd
  0
BLOCK
  5
2E1
330
2E0
100
AcDbEntity
  8
0
100
AcDbBlockBegin
  2
*D14
 70
     1
 10
0.0
 20
0.0
 30
0.0
  3
*D14
  1
*D14
  0
LINE
  5
2E3
330
2E0
100
AcDbEntity
  8
0
 62
     0
100
AcDbLine
 10
7.276348610381483
 20
9.758723708384782
 30
0.0
 11
7.886663041472588
 21
9.758723708384782
 31
0.0
  0
LINE
  5
2E4
330
2E0
100
AcDbEntity
  8
0
 62
     0
100
AcDbLine
 10
6.776348610381483
 20
9.258723708384782
 30
0.0
 11
7.886663041472588
 21
9.258723708384782
 31
0.0
  0
LINE
  5
2E5
330
2E0
100
AcDbEntity
  8
0
 62
     0
100
AcDbLine
 10
7.706663041472588
 20
9.938723708384781
 30
0.0
 11
7.706663041472588
 21
10.11872370838478
 31
0.0
  0
LINE
  5
2E6
330
2E0
100
AcDbEntity
  8
0
 62
     0
100
AcDbLine
 10
7.706663041472588
 20
9.078723708384782
 30
0.0
 11
7.706663041472588
 21
8.898723708384782
 31
0.0
  0
SOLID
  5
2E7
330
2E0
100
AcDbEntity
  8
0
 62
     0
100
AcDbTrace
 10
7.676663041472588
 20
9.938723708384781
 30
0.0
 11
7.736663041472588
 21
9.938723708384781
 31
0.0
 12
7.706663041472588
 22
9.758723708384782
 32
0.0
 13
7.706663041472588
 23
9.758723708384782
 33
0.0
  0
SOLID
  5
2E8
330
2E0
100
AcDbEntity
  8
0
 62
     0
100
AcDbTrace
 10
7.736663041472588
 20
9.078723708384782
 30
0.0
 11
7.676663041472588
 21
9.078723708384782
 31
0.0
 12
7.706663041472588
 22
9.258723708384782
 32
0.0
 13
7.706663041472588
 23
9.258723708384782
 33
0.0
  0
MTEXT
  5
2E9
330
2E0
100
AcDbEntity
  8
0
 62
     0
100
AcDbMText
 10
7.706663041472588
 20
9.508723708384782
 30
0.0
 40
0.18
 41
0.0
 71
     5
 72
     1
  1
\A1;0.500"
  0
POINT
  5
2EA
330
2E0
100
AcDbEntity
  8
DEFPOINTS
 62
     0
100
AcDbPoint
 10
7.213848610381483
 20
9.758723708384782
 30
0.0
  0
POINT
  5
2EB
330
2E0
100
AcDbEntity
  8
DEFPOINTS
 62
     0
100
AcDbPoint
 10
6.713848610381483
 20
9.258723708384782
 30
0.0
  0
POINT
  5
2EC
330
2E0
100
AcDbEntity
  8
DEFPOINTS
 62
     0
100
AcDbPoint
 10
7.706663041472588
 20
9.258723708384782
 30
0.0
  0
ENDBLK
  5
2E2
330
2E0
100
AcDbEntity
  8
0
100
AcDbBlockEnd
  0
BLOCK
  5
2F1
330
2F0
100
AcDbEntity
  8
0
100
AcDbBlockBegin
  2
*D15
 70
     1
 10
0.0
 20
0.0
 30
0.0
  3
*D15
  1
*D15
  0
LINE
  5
2F3
330
2F0
100
AcDbEntity
  8
0
 62
     0
100
AcDbLine
 10
7.213848610381483
 20
9.821223708384782
 30
0.0
 11
7.213848610381483
 21
10.18565709447093
 31
0.0
  0
LINE
  5
2F4
330
2F0
100
AcDbEntity
  8
0
 62
     0
100
AcDbLine
 10
6.713848610381483
 20
9.321223708384782
 30
0.0
 11
6.713848610381483
 21
10.18565709447093
 31
0.0
  0
LINE
  5
2F5
330
2F0
100
AcDbEntity
  8
0
 62
     0
100
AcDbLine
 10
6.533848610381483
 20
10.00565709447093
 30
0.0
 11
6.353848610381483
 21
10.00565709447093
 31
0.0
  0
LINE
  5
2F6
330
2F0
100
AcDbEntity
  8
0
 62
     0
100
AcDbLine
 10
7.393848610381482
 20
10.00565709447093
 30
0.0
 11
7.573848610381482
 21
10.00565709447093
 31
0.0
  0
SOLID
  5
2F7
330
2F0
100
AcDbEntity
  8
0
 62
     0
100
AcDbTrace
 10
7.393848610381482
 20
10.03565709447093
 30
0.0
 11
7.393848610381482
 21
9.975657094470927
 31
0.0
 12
7.213848610381483
 22
10.00565709447093
 32
0.0
 13
7.213848610381483
 23
10.00565709447093
 33
0.0
  0
SOLID
  5
2F8
330
2F0
100
AcDbEntity
  8
0
 62
     0
100
AcDbTrace
 10
6.533848610381483
 20
9.975657094470927
 30
0.0
 11
6.533848610381483
 21
10.03565709447093
 31
0.0
 12
6.713848610381483
 22
10.00565709447093
 32
0.0
 13
6.713848610381483
 23
10.00565709447093
 33
0.0
  0
MTEXT
  5
2F9
330
2F0
100
AcDbEntity
  8
0
 62
     0
100
AcDbMText
 10
5.916088610381482
 20
10.00565709447093
 30
0.0
 40
0.18
 41
0.0
 71
     5
 72
     1
  1
\A1;0.500"
  0
POINT
  5
2FA
330
2F0
100
AcDbEntity
  8
DEFPOINTS
 62
     0
100
AcDbPoint
 10
7.213848610381483
 20
9.758723708384782
 30
0.0
  0
POINT
  5
2FB
330
2F0
100
AcDbEntity
  8
DEFPOINTS
 62
     0
100
AcDbPoint
 10
6.713848610381483
 20
9.258723708384782
 30
0.0
  0
POINT
  5
2FC
330
2F0
100
AcDbEntity
  8
DEFPOINTS
 62
     0
100
AcDbPoint
 10
6.713848610381483
 20
10.00565709447093
 30
0.0
  0
ENDBLK
  5
2F2
330
2F0
100
AcDbEntity
  8
0
100
AcDbBlockEnd
  0
BLOCK
  5
301
330
300
100
AcDbEntity
  8
0
100
AcDbBlockBegin
  2
*D16
 70
     1
 10
0.0
 20
0.0
 30
0.0
  3
*D16
  1
*D16
  0
LINE
  5
303
330
300
100
AcDbEntity
  8
0
 62
     0
100
AcDbLine
 10
6.713848610381483
 20
9.321223708384782
 30
0.0
 11
6.713848610381483
 21
10.48466645876259
 31
0.0
  0
LINE
  5
304
330
300
100
AcDbEntity
  8
0
 62
     0
100
AcDbLine
 10
4.213848610381483
 20
8.821223708384782
 30
0.0
 11
4.213848610381483
 21
10.48466645876259
 31
0.0
  0
LINE
  5
305
330
300
100
AcDbEntity
  8
0
 62
     0
100
AcDbLine
 10
6.533848610381483
 20
10.30466645876259
 30
0.0
 11
5.903138610381482
 21
10.30466645876259
 31
0.0
  0
LINE
  5
306
330
300
100
AcDbEntity
  8
0
 62
     0
100
AcDbLine
 10
4.393848610381482
 20
10.30466645876259
 30
0.0
 11
5.024558610381483
 21
10.30466645876259
 31
0.0
  0
SOLID
  5
307
330
300
100
AcDbEntity
  8
0
 62
     0
100
AcDbTrace
 10
6.533848610381483
 20
10.27466645876259
 30
0.0
 11
6.533848610381483
 21
10.33466645876259
 31
0.0
 12
6.713848610381483
 22
10.30466645876259
 32
0.0
 13
6.713848610381483
 23
10.30466645876259
 33
0.0
  0
SOLID
  5
308
330
300
100
AcDbEntity
  8
0
 62
     0
100
AcDbTrace
 10
4.393848610381482
 20
10.33466645876259
 30
0.0
 11
4.393848610381482
 21
10.27466645876259
 31
0.0
 12
4.213848610381483
 22
10.30466645876259
 32
0.0
 13
4.213848610381483
 23
10.30466645876259
 33
0.0
  0
MTEXT
  5
309
330
300
100
AcDbEntity
  8
0
 62
     0
100
AcDbMText
 10
5.463848610381483
 20
10.30466645876259
 30
0.0
 40
0.18
 41
0.0
 71
     5
 72
     1
  1
\A1;2.500"
  0
POINT
  5
30A
330
300
100
AcDbEntity
  8
DEFPOINTS
 62
     0
100
AcDbPoint
 10
6.713848610381483
 20
9.258723708384782
 30
0.0
  0
POINT
  5
30B
330
300
100
AcDbEntity
  8
DEFPOINTS
 62
     0
100
AcDbPoint
 10
4.213848610381483
 20
8.758723708384782
 30
0.0
  0
POINT
  5
30C
330
300
100
AcDbEntity
  8
DEFPOINTS
 62
     0
100
AcDbPoint
 10
4.213848610381483
 20
10.30466645876259
 30
0.0
  0
ENDBLK
  5
302
330
300
100
AcDbEntity
  8
0
100
AcDbBlockEnd
  0
BLOCK
  5
311
330
310
100
AcDbEntity
  8
0
100
AcDbBlockBegin
  2
*D17
 70
     1
 10
0.0
 20
0.0
 30
0.0
  3
*D17
  1
*D17
  0
LINE
  5
313
330
310
100
AcDbEntity
  8
0
 62
     0
100
AcDbLine
 10
4.213848610381483
 20
8.821223708384782
 30
0.0
 11
4.213848610381483
 21
10.48466645876259
 31
0.0
  0
LINE
  5
314
330
310
100
AcDbEntity
  8
0
 62
     0
100
AcDbLine
 10
1.713848610381483
 20
9.321223708384782
 30
0.0
 11
1.713848610381483
 21
10.48466645876259
 31
0.0
  0
LINE
  5
315
330
310
100
AcDbEntity
  8
0
 62
     0
100
AcDbLine
 10
4.033848610381483
 20
10.30466645876259
 30
0.0
 11
3.403138610381482
 21
10.30466645876259
 31
0.0
  0
LINE
  5
316
330
310
100
AcDbEntity
  8
0
 62
     0
100
AcDbLine
 10
1.893848610381483
 20
10.30466645876259
 30
0.0
 11
2.524558610381483
 21
10.30466645876259
 31
0.0
  0
SOLID
  5
317
330
310
100
AcDbEntity
  8
0
 62
     0
100
AcDbTrace
 10
4.033848610381483
 20
10.27466645876259
 30
0.0
 11
4.033848610381483
 21
10.33466645876259
 31
0.0
 12
4.213848610381483
 22
10.30466645876259
 32
0.0
 13
4.213848610381483
 23
10.30466645876259
 33
0.0
  0
SOLID
  5
318
330
310
100
AcDbEntity
  8
0
 62
     0
100
AcDbTrace
 10
1.893848610381483
 20
10.33466645876259
 30
0.0
 11
1.893848610381483
 21
10.27466645876259
 31
0.0
 12
1.713848610381483
 22
10.30466645876259
 32
0.0
 13
1.713848610381483
 23
10.30466645876259
 33
0.0
  0
MTEXT
  5
319
330
310
100
AcDbEntity
  8
0
 62
     0
100
AcDbMText
 10
2.963848610381483
 20
10.30466645876259
 30
0.0
 40
0.18
 41
0.0
 71
     5
 72
     1
  1
\A1;2.500"
  0
POINT
  5
31A
330
310
100
AcDbEntity
  8
DEFPOINTS
 62
     0
100
AcDbPoint
 10
4.213848610381483
 20
8.758723708384782
 30
0.0
  0
POINT
  5
31B
330
310
100
AcDbEntity
  8
DEFPOINTS
 62
     0
100
AcDbPoint
 10
1.713848610381483
 20
9.258723708384782
 30
0.0
  0
POINT
  5
31C
330
310
100
AcDbEntity
  8
DEFPOINTS
 62
     0
100
AcDbPoint
 10
1.713848610381483
 20
10.30466645876259
 30
0.0
  0
ENDBLK
  5
312
330
310
100
AcDbEntity
  8
0
100
AcDbBlockEnd
  0
BLOCK
  5
321
330
320
100
AcDbEntity
  8
0
100
AcDbBlockBegin
  2
*D18
 70
     1
 10
0.0
 20
0.0
 30
0.0
  3
*D18
  1
*D18
  0
LINE
  5
323
330
320
100
AcDbEntity
  8
0
 62
     0
100
AcDbLine
 10
1.713848610381483
 20
9.321223708384782
 30
0.0
 11
1.713848610381483
 21
10.48466645876259
 31
0.0
  0
LINE
  5
324
330
320
100
AcDbEntity
  8
0
 62
     0
100
AcDbLine
 10
1.213848610381483
 20
9.821223708384782
 30
0.0
 11
1.213848610381483
 21
10.48466645876259
 31
0.0
  0
LINE
  5
325
330
320
100
AcDbEntity
  8
0
 62
     0
100
AcDbLine
 10
1.033848610381483
 20
10.30466645876259
 30
0.0
 11
0.8538486103814829
 21
10.30466645876259
 31
0.0
  0
LINE
  5
326
330
320
100
AcDbEntity
  8
0
 62
     0
100
AcDbLine
 10
1.893848610381483
 20
10.30466645876259
 30
0.0
 11
2.073848610381483
 21
10.30466645876259
 31
0.0
  0
SOLID
  5
327
330
320
100
AcDbEntity
  8
0
 62
     0
100
AcDbTrace
 10
1.893848610381483
 20
10.33466645876259
 30
0.0
 11
1.893848610381483
 21
10.27466645876259
 31
0.0
 12
1.713848610381483
 22
10.30466645876259
 32
0.0
 13
1.713848610381483
 23
10.30466645876259
 33
0.0
  0
SOLID
  5
328
330
320
100
AcDbEntity
  8
0
 62
     0
100
AcDbTrace
 10
1.033848610381483
 20
10.27466645876259
 30
0.0
 11
1.033848610381483
 21
10.33466645876259
 31
0.0
 12
1.213848610381483
 22
10.30466645876259
 32
0.0
 13
1.213848610381483
 23
10.30466645876259
 33
0.0
  0
MTEXT
  5
329
330
320
100
AcDbEntity
  8
0
 62
     0
100
AcDbMText
 10
0.4160886103814827
 20
10.30466645876259
 30
0.0
 40
0.18
 41
0.0
 71
     5
 72
     1
  1
\A1;0.500"
  0
POINT
  5
32A
330
320
100
AcDbEntity
  8
DEFPOINTS
 62
     0
100
AcDbPoint
 10
1.713848610381483
 20
9.258723708384782
 30
0.0
  0
POINT
  5
32B
330
320
100
AcDbEntity
  8
DEFPOINTS
 62
     0
100
AcDbPoint
 10
1.213848610381483
 20
9.758723708384782
 30
0.0
  0
POINT
  5
32C
330
320
100
AcDbEntity
  8
DEFPOINTS
 62
     0
100
AcDbPoint
 10
1.213848610381483
 20
10.30466645876259
 30
0.0
  0
ENDBLK
  5
322
330
320
100
AcDbEntity
  8
0
100
AcDbBlockEnd
  0
BLOCK
  5
331
330
330
100
AcDbEntity
  8
0
100
AcDbBlockBegin
  2
*D19
 70
     1
 10
0.0
 20
0.0
 30
0.0
  3
*D19
  1
*D19
  0
LINE
  5
333
330
330
100
AcDbEntity
  8
0
 62
     0
100
AcDbLine
 10
6.776348610381483
 20
9.258723708384782
 30
0.0
 11
7.886663041472588
 21
9.258723708384782
 31
0.0
  0
LINE
  5
334
330
330
100
AcDbEntity
  8
0
 62
     0
100
AcDbLine
 10
6.776348610381483
 20
7.258723708384782
 30
0.0
 11
7.886663041472588
 21
7.258723708384782
 31
0.0
  0
LINE
  5
335
330
330
100
AcDbEntity
  8
0
 62
     0
100
AcDbLine
 10
7.706663041472588
 20
9.078723708384782
 30
0.0
 11
7.706663041472588
 21
8.440613708384781
 31
0.0
  0
LINE
  5
336
330
330
100
AcDbEntity
  8
0
 62
     0
100
AcDbLine
 10
7.706663041472588
 20
7.438723708384781
 30
0.0
 11
7.706663041472588
 21
8.076833708384783
 31
0.0
  0
SOLID
  5
337
330
330
100
AcDbEntity
  8
0
 62
     0
100
AcDbTrace
 10
7.736663041472588
 20
9.078723708384782
 30
0.0
 11
7.676663041472588
 21
9.078723708384782
 31
0.0
 12
7.706663041472588
 22
9.258723708384782
 32
0.0
 13
7.706663041472588
 23
9.258723708384782
 33
0.0
  0
SOLID
  5
338
330
330
100
AcDbEntity
  8
0
 62
     0
100
AcDbTrace
 10
7.676663041472588
 20
7.438723708384781
 30
0.0
 11
7.736663041472588
 21
7.438723708384781
 31
0.0
 12
7.706663041472588
 22
7.258723708384782
 32
0.0
 13
7.706663041472588
 23
7.258723708384782
 33
0.0
  0
MTEXT
  5
339
330
330
100
AcDbEntity
  8
0
 62
     0
100
AcDbMText
 10
7.706663041472588
 20
8.258723708384782
 30
0.0
 40
0.18
 41
0.0
 71
     5
 72
     1
  1
\A1;2.000"
  0
POINT
  5
33A
330
330
100
AcDbEntity
  8
DEFPOINTS
 62
     0
100
AcDbPoint
 10
6.713848610381483
 20
9.258723708384782
 30
0.0
  0
POINT
  5
33B
330
330
100
AcDbEntity
  8
DEFPOINTS
 62
     0
100
AcDbPoint
 10
6.713848610381483
 20
7.258723708384782
 30
0.0
  0
POINT
  5
33C
330
330
100
AcDbEntity
  8
DEFPOINTS
 62
     0
100
AcDbPoint
 10
7.706663041472588
 20
7.258723708384782
 30
0.0
  0
ENDBLK
  5
332
330
330
100
AcDbEntity
  8
0
100
AcDbBlockEnd
  0
BLOCK
  5
341
330
340
100
AcDbEntity
  8
0
100
AcDbBlockBegin
  2
*D20
 70
     1
 10
0.0
 20
0.0
 30
0.0
  3
*D20
  1
*D20
  0
LINE
  5
343
330
340
100
AcDbEntity
  8
0
 62
     0
100
AcDbLine
 10
6.776348610381483
 20
7.258723708384782
 30
0.0
 11
7.886663041472588
 21
7.258723708384782
 31
0.0
  0
LINE
  5
344
330
340
100
AcDbEntity
  8
0
 62
     0
100
AcDbLine
 10
6.776348610381483
 20
6.258723708384782
 30
0.0
 11
7.886663041472588
 21
6.258723708384782
 31
0.0
  0
LINE
  5
345
330
340
100
AcDbEntity
  8
0
 62
     0
100
AcDbLine
 10
7.706663041472588
 20
7.078723708384782
 30
0.0
 11
7.706663041472588
 21
6.940613708384782
 31
0.0
  0
LINE
  5
346
330
340
100
AcDbEntity
  8
0
 62
     0
100
AcDbLine
 10
7.706663041472588
 20
6.438723708384781
 30
0.0
 11
7.706663041472588
 21
6.576833708384782
 31
0.0
  0
SOLID
  5
347
330
340
100
AcDbEntity
  8
0
 62
     0
100
AcDbTrace
 10
7.736663041472588
 20
7.078723708384782
 30
0.0
 11
7.676663041472588
 21
7.078723708384782
 31
0.0
 12
7.706663041472588
 22
7.258723708384782
 32
0.0
 13
7.706663041472588
 23
7.258723708384782
 33
0.0
  0
SOLID
  5
348
330
340
100
AcDbEntity
  8
0
 62
     0
100
AcDbTrace
 10
7.676663041472588
 20
6.438723708384781
 30
0.0
 11
7.736663041472588
 21
6.438723708384781
 31
0.0
 12
7.706663041472588
 22
6.258723708384782
 32
0.0
 13
7.706663041472588
 23
6.258723708384782
 33
0.0
  0
MTEXT
  5
349
330
340
100
AcDbEntity
  8
0
 62
     0
100
AcDbMText
 10
7.706663041472588
 20
6.758723708384782
 30
0.0
 40
0.18
 41
0.0
 71
     5
 72
     1
  1
\A1;1.000"
  0
POINT
  5
34A
330
340
100
AcDbEntity
  8
DEFPOINTS
 62
     0
100
AcDbPoint
 10
6.713848610381483
 20
7.258723708384782
 30
0.0
  0
POINT
  5
34B
330
340
100
AcDbEntity
  8
DEFPOINTS
 62
     0
100
AcDbPoint
 10
6.713848610381483
 20
6.258723708384782
 30
0.0
  0
POINT
  5
34C
330
340
100
AcDbEntity
  8
DEFPOINTS
 62
     0
100
AcDbPoint
 10
7.706663041472588
 20
6.258723708384782
 30
0.0
  0
ENDBLK
  5
342
330
340
100
AcDbEntity
  8
0
100
AcDbBlockEnd
  0
BLOCK
  5
351
330
350
100
AcDbEntity
  8
0
100
AcDbBlockBegin
  2
*D21
 70
     1
 10
0.0
 20
0.0
 30
0.0
  3
*D21
  1
*D21
  0
LINE
  5
353
330
350
100
AcDbEntity
  8
0
 62
     0
100
AcDbLine
 10
6.776348610381483
 20
6.258723708384782
 30
0.0
 11
7.886663041472588
 21
6.258723708384782
 31
0.0
  0
LINE
  5
354
330
350
100
AcDbEntity
  8
0
 62
     0
100
AcDbLine
 10
6.776348610381483
 20
5.258723708384782
 30
0.0
 11
7.886663041472588
 21
5.258723708384782
 31
0.0
  0
LINE
  5
355
330
350
100
AcDbEntity
  8
0
 62
     0
100
AcDbLine
 10
7.706663041472588
 20
6.078723708384782
 30
0.0
 11
7.706663041472588
 21
5.940613708384782
 31
0.0
  0
LINE
  5
356
330
350
100
AcDbEntity
  8
0
 62
     0
100
AcDbLine
 10
7.706663041472588
 20
5.438723708384781
 30
0.0
 11
7.706663041472588
 21
5.576833708384782
 31
0.0
  0
SOLID
  5
357
330
350
100
AcDbEntity
  8
0
 62
     0
100
AcDbTrace
 10
7.736663041472588
 20
6.078723708384782
 30
0.0
 11
7.676663041472588
 21
6.078723708384782
 31
0.0
 12
7.706663041472588
 22
6.258723708384782
 32
0.0
 13
7.706663041472588
 23
6.258723708384782
 33
0.0
  0
SOLID
  5
358
330
350
100
AcDbEntity
  8
0
 62
     0
100
AcDbTrace
 10
7.676663041472588
 20
5.438723708384781
 30
0.0
 11
7.736663041472588
 21
5.438723708384781
 31
0.0
 12
7.706663041472588
 22
5.258723708384782
 32
0.0
 13
7.706663041472588
 23
5.258723708384782
 33
0.0
  0
MTEXT
  5
359
330
350
100
AcDbEntity
  8
0
 62
     0
100
AcDbMText
 10
7.706663041472588
 20
5.758723708384782
 30
0.0
 40
0.18
 41
0.0
 71
     5
 72
     1
  1
\A1;1.000"
  0
POINT
  5
35A
330
350
100
AcDbEntity
  8
DEFPOINTS
 62
     0
100
AcDbPoint
 10
6.713848610381483
 20
6.258723708384782
 30
0.0
  0
POINT
  5
35B
330
350
100
AcDbEntity
  8
DEFPOINTS
 62
     0
100
AcDbPoint
 10
6.713848610381483
 20
5.258723708384782
 30
0.0
  0
POINT
  5
35C
330
350
100
AcDbEntity
  8
DEFPOINTS
 62
     0
100
AcDbPoint
 10
7.706663041472588
 20
5.258723708384782
 30
0.0
  0
ENDBLK
  5
352
330
350
100
AcDbEntity
  8
0
100
AcDbBlockEnd
  0
BLOCK
  5
361
330
360
100
AcDbEntity
  8
0
100
AcDbBlockBegin
  2
*D22
 70
     1
 10
0.0
 20
0.0
 30
0.0
  3
*D22
  1
*D22
  0
LINE
  5
363
330
360
100
AcDbEntity
  8
0
 62
     0
100
AcDbLine
 10
6.776348610381483
 20
5.258723708384782
 30
0.0
 11
7.886663041472588
 21
5.258723708384782
 31
0.0
  0
LINE
  5
364
330
360
100
AcDbEntity
  8
0
 62
     0
100
AcDbLine
 10
6.776348610381483
 20
2.758723708384782
 30
0.0
 11
7.886663041472588
 21
2.758723708384782
 31
0.0
  0
LINE
  5
365
330
360
100
AcDbEntity
  8
0
 62
     0
100
AcDbLine
 10
7.706663041472588
 20
5.078723708384782
 30
0.0
 11
7.706663041472588
 21
4.190613708384782
 31
0.0
  0
LINE
  5
366
330
360
100
AcDbEntity
  8
0
 62
     0
100
AcDbLine
 10
7.706663041472588
 20
2.938723708384782
 30
0.0
 11
7.706663041472588
 21
3.826833708384782
 31
0.0
  0
SOLID
  5
367
330
360
100
AcDbEntity
  8
0
 62
     0
100
AcDbTrace
 10
7.736663041472588
 20
5.078723708384782
 30
0.0
 11
7.676663041472588
 21
5.078723708384782
 31
0.0
 12
7.706663041472588
 22
5.258723708384782
 32
0.0
 13
7.706663041472588
 23
5.258723708384782
 33
0.0
  0
SOLID
  5
368
330
360
100
AcDbEntity
  8
0
 62
     0
100
AcDbTrace
 10
7.676663041472588
 20
2.938723708384782
 30
0.0
 11
7.736663041472588
 21
2.938723708384782
 31
0.0
 12
7.706663041472588
 22
2.758723708384782
 32
0.0
 13
7.706663041472588
 23
2.758723708384782
 33
0.0
  0
MTEXT
  5
369
330
360
100
AcDbEntity
  8
0
 62
     0
100
AcDbMText
 10
7.706663041472588
 20
4.008723708384782
 30
0.0
 40
0.18
 41
0.0
 71
     5
 72
     1
  1
\A1;2.500"
  0
POINT
  5
36A
330
360
100
AcDbEntity
  8
DEFPOINTS
 62
     0
100
AcDbPoint
 10
6.713848610381483
 20
5.258723708384782
 30
0.0
  0
POINT
  5
36B
330
360
100
AcDbEntity
  8
DEFPOINTS
 62
     0
100
AcDbPoint
 10
6.713848610381483
 20
2.758723708384782
 30
0.0
  0
POINT
  5
36C
330
360
100
AcDbEntity
  8
DEFPOINTS
 62
     0
100
AcDbPoint
 10
7.706663041472588
 20
2.758723708384782
 30
0.0
  0
ENDBLK
  5
362
330
360
100
AcDbEntity
  8
0
100
AcDbBlockEnd
  0
BLOCK
  5
371
330
370
100
AcDbEntity
  8
0
100
AcDbBlockBegin
  2
*D23
 70
     1
 10
0.0
 20
0.0
 30
0.0
  3
*D23
  1
*D23
  0
LINE
  5
373
330
370
100
AcDbEntity
  8
0
 62
     0
100
AcDbLine
 10
6.713848610381483
 20
2.696223708384782
 30
0.0
 11
6.713848610381483
 21
2.176700843349278
 31
0.0
  0
LINE
  5
374
330
370
100
AcDbEntity
  8
0
 62
     0
100
AcDbLine
 10
6.213848610381483
 20
2.696223708384782
 30
0.0
 11
6.213848610381483
 21
2.176700843349278
 31
0.0
  0
LINE
  5
375
330
370
100
AcDbEntity
  8
0
 62
     0
100
AcDbLine
 10
6.033848610381483
 20
2.356700843349278
 30
0.0
 11
5.853848610381483
 21
2.356700843349278
 31
0.0
  0
LINE
  5
376
330
370
100
AcDbEntity
  8
0
 62
     0
100
AcDbLine
 10
6.893848610381482
 20
2.356700843349278
 30
0.0
 11
7.073848610381482
 21
2.356700843349278
 31
0.0
  0
SOLID
  5
377
330
370
100
AcDbEntity
  8
0
 62
     0
100
AcDbTrace
 10
6.893848610381482
 20
2.386700843349278
 30
0.0
 11
6.893848610381482
 21
2.326700843349278
 31
0.0
 12
6.713848610381483
 22
2.356700843349278
 32
0.0
 13
6.713848610381483
 23
2.356700843349278
 33
0.0
  0
SOLID
  5
378
330
370
100
AcDbEntity
  8
0
 62
     0
100
AcDbTrace
 10
6.033848610381483
 20
2.326700843349278
 30
0.0
 11
6.033848610381483
 21
2.386700843349278
 31
0.0
 12
6.213848610381483
 22
2.356700843349278
 32
0.0
 13
6.213848610381483
 23
2.356700843349278
 33
0.0
  0
MTEXT
  5
379
330
370
100
AcDbEntity
  8
0
 62
     0
100
AcDbMText
 10
5.416088610381482
 20
2.356700843349278
 30
0.0
 40
0.18
 41
0.0
 71
     5
 72
     1
  1
\A1;0.500"
  0
POINT
  5
37A
330
370
100
AcDbEntity
  8
DEFPOINTS
 62
     0
100
AcDbPoint
 10
6.713848610381483
 20
2.758723708384782
 30
0.0
  0
POINT
  5
37B
330
370
100
AcDbEntity
  8
DEFPOINTS
 62
     0
100
AcDbPoint
 10
6.213848610381483
 20
2.758723708384782
 30
0.0
  0
POINT
  5
37C
330
370
100
AcDbEntity
  8
DEFPOINTS
 62
     0
100
AcDbPoint
 10
6.213848610381483
 20
2.356700843349278
 30
0.0
  0
ENDBLK
  5
372
330
370
100
AcDbEntity
  8
0
100
AcDbBlockEnd
  0
ENDSEC
  0
SECTION
  2
ENTITIES
  0
LWPOLYLINE
  5
1AA
102
{ACAD_REACTORS
102
}
330
1F
100
AcDbEntity
  8
0
100
AcDbPolyline
 90
        5
 70
     0
 43
0.0
 10
1.213848610381483
 20
1.008723708384781
 10
1.213848610381483
 20
9.758723708384782
 10
7.213848610381483
 20
9.758723708384782
 10
7.213848610381483
 20
1.071223708384782
 10
5.167096610381483
 20
1.071223708384782
  0
CIRCLE
  5
1AC
102
{ACAD_REACTORS
102
}
330
1F
100
AcDbEntity
  8
0
100
AcDbCircle
 10
4.213848610381483
 20
2.508723708384782
 30
0.0
 40
0.5625
  0
CIRCLE
  5
1B1
102
{ACAD_REACTORS
102
}
330
1F
100
AcDbEntity
  8
0
100
AcDbCircle
 10
4.213848610381483
 20
8.758723708384782
 30
0.0
 40
0.075
  0
LINE
  5
1B2
330
1F
100
AcDbEntity
  8
0
100
AcDbLine
 10
7.213848610381483
 20
9.258723708384782
 30
0.0
 11
7.213848610381483
 21
9.258723708384782
 31
0.0
  0
CIRCLE
  5
1B5
102
{ACAD_REACTORS
102
}
330
1F
100
AcDbEntity
  8
0
100
AcDbCircle
 10
1.713848610381483
 20
9.258723708384782
 30
0.0
 40
0.075
  0
CIRCLE
  5
1B6
102
{ACAD_REACTORS
102
}
330
1F
100
AcDbEntity
  8
0
100
AcDbCircle
 10
6.713848610381483
 20
9.258723708384782
 30
0.0
 40
0.075
  0
CIRCLE
  5
1BE
330
1F
100
AcDbEntity
  8
0
100
AcDbCircle
 10
1.713848610381483
 20
2.758723708384782
 30
0.0
 40
0.075
  0
CIRCLE
  5
1BF
102
{ACAD_REACTORS
102
}
330
1F
100
AcDbEntity
  8
0
100
AcDbCircle
 10
6.713848610381483
 20
2.758723708384782
 30
0.0
 40
0.075
  0
CIRCLE
  5
1CF
102
{ACAD_REACTORS
102
}
330
1F
100
AcDbEntity
  8
0
100
AcDbCircle
 10
2.213848610381483
 20
2.758723708384782
 30
0.0
 40
0.075
  0
CIRCLE
  5
1D0
102
{ACAD_REACTORS
102
}
330
1F
100
AcDbEntity
  8
0
100
AcDbCircle
 10
6.213848610381483
 20
2.758723708384782
 30
0.0
 40
0.075
  0
CIRCLE
  5
227
102
{ACAD_REACTORS
102
}
330
1F
100
AcDbEntity
  8
0
100
AcDbCircle
 10
1.551348610381482
 20
1.008723708384782
 30
0.0
 40
0.1181102362204725
  0
CIRCLE
  5
228
102
{ACAD_REACTORS
102
}
330
1F
100
AcDbEntity
  8
0
100
AcDbCircle
 10
3.559222610381482
 20
1.008723708384782
 30
0.0
 40
0.1181102362204725
  0
LINE
  5
229
330
1F
100
AcDbEntity
  8
0
100
AcDbLine
 10
1.301348610381482
 20
1.008723708384782
 30
0.0
 11
1.301348610381482
 21
1.008723708384782
 31
0.0
  0
LINE
  5
22A
330
1F
100
AcDbEntity
  8
0
100
AcDbLine
 10
1.213848610381482
 20
1.008723708384782
 30
0.0
 11
1.213848610381482
 21
2.102473708384781
 31
0.0
  0
LINE
  5
22C
330
1F
100
AcDbEntity
  8
0
100
AcDbLine
 10
1.951348610381482
 20
1.071223708384782
 30
0.0
 11
3.159222610381482
 21
1.071223708384782
 31
0.0
  0
ARC
  5
22D
330
1F
100
AcDbEntity
  8
0
100
AcDbCircle
 10
3.559222610381482
 20
1.008723708384782
 30
0.0
 40
0.3375
100
AcDbArc
 50
180.0
 51
0.0
  0
ARC
  5
22E
330
1F
100
AcDbEntity
  8
0
100
AcDbCircle
 10
1.551348610381482
 20
1.008723708384782
 30
0.0
 40
0.3375
100
AcDbArc
 50
180.0
 51
0.0
  0
ARC
  5
22F
330
1F
100
AcDbEntity
  8
0
100
AcDbCircle
 10
3.159222610381482
 20
1.008723708384782
 30
0.0
 40
0.0625
100
AcDbArc
 50
0.0
 51
90.0
  0
ARC
  5
230
330
1F
100
AcDbEntity
  8
0
100
AcDbCircle
 10
1.951348610381482
 20
1.008723708384782
 30
0.0
 40
0.0625
100
AcDbArc
 50
90.0
 51
180.0
  0
CIRCLE
  5
261
330
1F
100
AcDbEntity
  8
0
100
AcDbCircle
 10
1.713848610381483
 20
6.258723708384782
 30
0.0
 40
0.075
  0
CIRCLE
  5
263
102
{ACAD_REACTORS
102
}
330
1F
100
AcDbEntity
  8
0
100
AcDbCircle
 10
6.713848610381483
 20
6.258723708384782
 30
0.0
 40
0.075
  0
CIRCLE
  5
29B
330
1F
100
AcDbEntity
  8
0
100
AcDbCircle
 10
1.713848610381483
 20
5.258723708384782
 30
0.0
 40
0.075
  0
CIRCLE
  5
29C
102
{ACAD_REACTORS
102
}
330
1F
100
AcDbEntity
  8
0
100
AcDbCircle
 10
6.713848610381483
 20
5.258723708384782
 30
0.0
 40
0.075
  0
CIRCLE
  5
29D
330
1F
100
AcDbEntity
  8
0
100
AcDbCircle
 10
1.713848610381483
 20
7.258723708384782
 30
0.0
 40
0.075
  0
CIRCLE
  5
29E
102
{ACAD_REACTORS
102
}
330
1F
100
AcDbEntity
  8
0
100
AcDbCircle
 10
6.713848610381483
 20
7.258723708384782
 30
0.0
 40
0.075
  0
ARC
  5
2A1
330
1F
100
AcDbEntity
  8
0
100
AcDbCircle
 10
3.959222610381482
 20
1.008723708384782
 30
0.0
 40
0.0625
100
AcDbArc
 50
90.0
 51
180.0
  0
LINE
  5
2A2
330
1F
100
AcDbEntity
  8
0
100
AcDbLine
 10
3.959222610381482
 20
1.071223708384782
 30
0.0
 11
5.167096610381483
 21
1.071223708384782
 31
0.0
  0
DIMENSION
  5
2A3
102
{ACAD_REACTORS
102
}
102
{ACAD_XDICTIONARY
360
2A4
102
}
330
1F
100
AcDbEntity
  8
0
100
AcDbDimension
  2
*D10
 10
3.559222610381482
 20
0.3309665090481131
 30
0.0
 11
2.555285610381482
 21
0.3309665090481131
 31
0.0
 70
    32
  3
STANDARD
100
AcDbAlignedDimension
 13
1.551348610381482
 23
1.008723708384782
 33
0.0
 14
3.559222610381482
 24
1.008723708384782
 34
0.0
100
AcDbRotatedDimension
  0
DIMENSION
  5
2B3
102
{ACAD_REACTORS
102
}
102
{ACAD_XDICTIONARY
360
2B4
102
}
330
1F
100
AcDbEntity
  8
0
100
AcDbDimension
  2
*D11
 10
1.551348610381482
 20
1.008723708384782
 30
0.0
 11
2.539817887687833
 21
1.392849730071254
 31
0.0
 70
   164
  3
STANDARD
100
AcDbRadialDimension
 15
1.621672048451233
 25
1.103616500303377
 35
0.0
 40
0.0
1001
ACAD_DSTYLE_DIMRADIAL_EXTE
1070
   387
1070
     1
1070
   388
1040
0.0
1070
   390
1040
6.283185307179586
  0
DIMENSION
  5
2C1
102
{ACAD_REACTORS
102
}
102
{ACAD_XDICTIONARY
360
2C2
102
}
330
1F
100
AcDbEntity
  8
0
100
AcDbDimension
  2
*D12
 10
4.213848610381483
 20
2.508723708384782
 30
0.0
 11
5.376714916021754
 21
3.308888926965166
 31
0.0
 70
   164
  3
STANDARD
100
AcDbRadialDimension
 15
4.493767089430428
 25
2.996629329470382
 35
0.0
 40
0.0
1001
ACAD_DSTYLE_DIMRADIAL_EXTE
1070
   387
1070
     1
1070
   388
1040
0.0
1070
   390
1040
6.283185307179586
  0
DIMENSION
  5
2CF
102
{ACAD_REACTORS
102
}
102
{ACAD_XDICTIONARY
360
2D0
102
}
330
1F
100
AcDbEntity
  8
0
100
AcDbDimension
  2
*D13
 10
2.213848610381483
 20
2.758723708384782
 30
0.0
 11
3.141878039550064
 21
3.131478538125098
 31
0.0
 70
   164
  3
STANDARD
100
AcDbRadialDimension
 15
2.252508856789859
 25
2.82299178247794
 35
0.0
 40
0.0
1001
ACAD_DSTYLE_DIMRADIAL_EXTE
1070
   387
1070
     1
1070
   388
1040
0.0
1070
   390
1040
6.283185307179586
  0
DIMENSION
  5
2DD
102
{ACAD_REACTORS
102
}
102
{ACAD_XDICTIONARY
360
2DE
102
}
330
1F
100
AcDbEntity
  8
0
100
AcDbDimension
  2
*D14
 10
7.706663041472588
 20
9.258723708384782
 30
0.0
 11
7.706663041472588
 21
9.508723708384782
 31
0.0
 70
    32
  3
STANDARD
100
AcDbAlignedDimension
 13
7.213848610381483
 23
9.758723708384782
 33
0.0
 14
6.713848610381483
 24
9.258723708384782
 34
0.0
 50
90.0
100
AcDbRotatedDimension
  0
DIMENSION
  5
2ED
102
{ACAD_REACTORS
102
}
102
{ACAD_XDICTIONARY
360
2EE
102
}
330
1F
100
AcDbEntity
  8
0
100
AcDbDimension
  2
*D15
 10
6.713848610381483
 20
10.00565709447093
 30
0.0
 11
5.916088610381482
 21
10.00565709447093
 31
0.0
 70
    32
  3
STANDARD
100
AcDbAlignedDimension
 13
7.213848610381483
 23
9.758723708384782
 33
0.0
 14
6.713848610381483
 24
9.258723708384782
 34
0.0
100
AcDbRotatedDimension
  0
DIMENSION
  5
2FD
102
{ACAD_REACTORS
102
}
102
{ACAD_XDICTIONARY
360
2FE
102
}
330
1F
100
AcDbEntity
  8
0
100
AcDbDimension
  2
*D16
 10
4.213848610381483
 20
10.30466645876259
 30
0.0
 11
5.463848610381483
 21
10.30466645876259
 31
0.0
 70
    32
  3
STANDARD
100
AcDbAlignedDimension
 13
6.713848610381483
 23
9.258723708384782
 33
0.0
 14
4.213848610381483
 24
8.758723708384782
 34
0.0
100
AcDbRotatedDimension
  0
DIMENSION
  5
30D
102
{ACAD_REACTORS
102
}
102
{ACAD_XDICTIONARY
360
30E
102
}
330
1F
100
AcDbEntity
  8
0
100
AcDbDimension
  2
*D17
 10
1.713848610381483
 20
10.30466645876259
 30
0.0
 11
2.963848610381483
 21
10.30466645876259
 31
0.0
 70
    32
  3
STANDARD
100
AcDbAlignedDimension
 13
4.213848610381483
 23
8.758723708384782
 33
0.0
 14
1.713848610381483
 24
9.258723708384782
 34
0.0
100
AcDbRotatedDimension
  0
DIMENSION
  5
31D
102
{ACAD_REACTORS
102
}
102
{ACAD_XDICTIONARY
360
31E
102
}
330
1F
100
AcDbEntity
  8
0
100
AcDbDimension
  2
*D18
 10
1.213848610381483
 20
10.30466645876259
 30
0.0
 11
0.4160886103814827
 21
10.30466645876259
 31
0.0
 70
    32
  3
STANDARD
100
AcDbAlignedDimension
 13
1.713848610381483
 23
9.258723708384782
 33
0.0
 14
1.213848610381483
 24
9.758723708384782
 34
0.0
100
AcDbRotatedDimension
  0
DIMENSION
  5
32D
102
{ACAD_REACTORS
102
}
102
{ACAD_XDICTIONARY
360
32E
102
}
330
1F
100
AcDbEntity
  8
0
100
AcDbDimension
  2
*D19
 10
7.706663041472588
 20
7.258723708384782
 30
0.0
 11
7.706663041472588
 21
8.258723708384782
 31
0.0
 70
    32
  3
STANDARD
100
AcDbAlignedDimension
 13
6.713848610381483
 23
9.258723708384782
 33
0.0
 14
6.713848610381483
 24
7.258723708384782
 34
0.0
 50
90.0
100
AcDbRotatedDimension
  0
DIMENSION
  5
33D
102
{ACAD_REACTORS
102
}
102
{ACAD_XDICTIONARY
360
33E
102
}
330
1F
100
AcDbEntity
  8
0
100
AcDbDimension
  2
*D20
 10
7.706663041472588
 20
6.258723708384782
 30
0.0
 11
7.706663041472588
 21
6.758723708384782
 31
0.0
 70
    32
  3
STANDARD
100
AcDbAlignedDimension
 13
6.713848610381483
 23
7.258723708384782
 33
0.0
 14
6.713848610381483
 24
6.258723708384782
 34
0.0
 50
90.0
100
AcDbRotatedDimension
  0
DIMENSION
  5
34D
102
{ACAD_REACTORS
102
}
102
{ACAD_XDICTIONARY
360
34E
102
}
330
1F
100
AcDbEntity
  8
0
100
AcDbDimension
  2
*D21
 10
7.706663041472588
 20
5.258723708384782
 30
0.0
 11
7.706663041472588
 21
5.758723708384782
 31
0.0
 70
    32
  3
STANDARD
100
AcDbAlignedDimension
 13
6.713848610381483
 23
6.258723708384782
 33
0.0
 14
6.713848610381483
 24
5.258723708384782
 34
0.0
 50
90.0
100
AcDbRotatedDimension
  0
DIMENSION
  5
35D
102
{ACAD_REACTORS
102
}
102
{ACAD_XDICTIONARY
360
35E
102
}
330
1F
100
AcDbEntity
  8
0
100
AcDbDimension
  2
*D22
 10
7.706663041472588
 20
2.758723708384782
 30
0.0
 11
7.706663041472588
 21
4.008723708384782
 31
0.0
 70
    32
  3
STANDARD
100
AcDbAlignedDimension
 13
6.713848610381483
 23
5.258723708384782
 33
0.0
 14
6.713848610381483
 24
2.758723708384782
 34
0.0
 50
90.0
100
AcDbRotatedDimension
  0
DIMENSION
  5
36D
102
{ACAD_REACTORS
102
}
102
{ACAD_XDICTIONARY
360
36E
102
}
330
1F
100
AcDbEntity
  8
0
100
AcDbDimension
  2
*D23
 10
6.213848610381483
 20
2.356700843349278
 30
0.0
 11
5.416088610381482
 21
2.356700843349278
 31
0.0
 70
    32
  3
STANDARD
100
AcDbAlignedDimension
 13
6.713848610381483
 23
2.758723708384782
 33
0.0
 14
6.213848610381483
 24
2.758723708384782
 34
0.0
100
AcDbRotatedDimension
  0
ENDSEC
  0
SECTION
  2
OBJECTS
  0
DICTIONARY
  5
C
330
0
100
AcDbDictionary
  3
ACAD_DETAILVIEWSTYLE
350
122
  3
ACAD_GROUP
350
D
  3
ACAD_IMAGE_VARS
350
DC
  3
ACAD_MLINESTYLE
350
17
  3
ACAD_SCALELIST
350
B6
  3
ACAD_SECTIONVIEWSTYLE
350
123
  3
ACDBVARIABLEDICTIONARY
350
66
  3
APPDATA
350
E1
  3
DIMOFFSETDICTIONARY
350
129
  3
DWGPROPS
350
37D
  0
DICTIONARY
  5
2A4
330
2A3
100
AcDbDictionary
280
     1
  0
DICTIONARY
  5
2B4
330
2B3
100
AcDbDictionary
280
     1
  0
DICTIONARY
  5
2C2
330
2C1
100
AcDbDictionary
280
     1
  0
DICTIONARY
  5
2D0
330
2CF
100
AcDbDictionary
280
     1
  0
DICTIONARY
  5
2DE
330
2DD
100
AcDbDictionary
280
     1
  0
DICTIONARY
  5
2EE
330
2ED
100
AcDbDictionary
280
     1
  0
DICTIONARY
  5
2FE
330
2FD
100
AcDbDictionary
280
     1
  0
DICTIONARY
  5
30E
330
30D
100
AcDbDictionary
280
     1
  0
DICTIONARY
  5
31E
330
31D
100
AcDbDictionary
280
     1
  0
DICTIONARY
  5
32E
330
32D
100
AcDbDictionary
280
     1
  0
DICTIONARY
  5
33E
330
33D
100
AcDbDictionary
280
     1
  0
DICTIONARY
  5
34E
330
34D
100
AcDbDictionary
280
     1
  0
DICTIONARY
  5
35E
330
35D
100
AcDbDictionary
280
     1
  0
DICTIONARY
  5
36E
330
36D
100
AcDbDictionary
280
     1
  0
DICTIONARY
  5
122
102
{ACAD_REACTORS
330
C
102
}
330
C
100
AcDbDictionary
  0
DICTIONARY
  5
D
102
{ACAD_REACTORS
330
C
102
}
330
C
100
AcDbDictionary
  0
RASTERVARIABLES
  5
DC
102
{ACAD_REACTORS
330
C
102
}
330
C
100
AcDbRasterVariables
 90
        0
 70
     1
 71
     1
 72
     5
  0
DICTIONARY
  5
17
102
{ACAD_REACTORS
330
C
102
}
330
C
100
AcDbDictionary
  3
STANDARD
350
18
  0
DICTIONARY
  5
B6
102
{ACAD_REACTORS
330
C
102
}
330
C
100
AcDbDictionary
  0
DICTIONARY
  5
123
102
{ACAD_REACTORS
330
C
102
}
330
C
100
AcDbDictionary
  0
DICTIONARY
  5
66
102
{ACAD_REACTORS
330
C
102
}
330
C
100
AcDbDictionary
  3
DIMASSOC
350
67
  3
HIDETEXT
350
6B
  3
HPTRANSPARENCY
350
14F
  0
DICTIONARY
  5
E1
102
{ACAD_REACTORS
330
C
102
}
330
C
100
AcDbDictionary
  0
DICTIONARY
  5
129
102
{ACAD_REACTORS
330
C
102
}
330
C
100
AcDbDictionary
  3
DIMRAILANGLE
350
15E
  3
DIMRAILFIRSTOFFSET
350
15C
  3
DIMRAILOFFSET
350
15D
  3
DIMRAILSENABLED
350
15F
  0
XRECORD
  5
37D
102
{ACAD_REACTORS
330
C
102
}
330
C
100
AcDbXrecord
  1
DWGPROPS COOKIE
  2

  3

  4

  6

  7

  8
brian.huang
  9

300
=
301
=
302
=
303
=
304
=
305
=
306
=
307
=
308
=
309
=
 40
0.0
 41
2452643.063384271
 42
2457646.026908021
  1

 90
        0
  0
MLINESTYLE
  5
18
102
{ACAD_REACTORS
330
17
102
}
330
17
100
AcDbMlineStyle
  2
STANDARD
 70
     0
  3

 62
   256
 51
90.0
 52
90.0
 71
     2
 49
0.5
 62
   256
  6
BYLAYER
 49
-0.5
 62
   256
  6
BYLAYER
  0
DICTIONARYVAR
  5
67
102
{ACAD_REACTORS
330
66
102
}
330
66
100
DictionaryVariables
280
     0
  1
2
  0
DICTIONARYVAR
  5
6B
102
{ACAD_REACTORS
330
66
102
}
330
66
100
DictionaryVariables
280
     0
  1
1
  0
DICTIONARYVAR
  5
14F
102
{ACAD_REACTORS
330
66
102
}
330
66
100
DictionaryVariables
280
     0
  1
ByLayer
  0
DICTIONARYVAR
  5
15E
102
{ACAD_REACTORS
330
129
102
}
330
129
100
DictionaryVariables
280
     0
  1
0.261799
  0
DICTIONARYVAR
  5
15C
102
{ACAD_REACTORS
330
129
102
}
330
129
100
DictionaryVariables
280
     0
  1
0.400000
  0
DICTIONARYVAR
  5
15D
102
{ACAD_REACTORS
330
129
102
}
330
129
100
DictionaryVariables
280
     0
  1
0.250000
  0
DICTIONARYVAR
  5
15F
102
{ACAD_REACTORS
330
129
102
}
330
129
100
DictionaryVariables
280
     0
  1
1
  0
ENDSEC
  0
EOF
